<?xml version="1.0" encoding="utf-8"?>
<svg id="master-artboard" viewBox="0 0 90 28" version="1.1" xmlns="http://www.w3.org/2000/svg" x="0px" y="0px" style="enable-background:new 0 0 1400 980;" width="90px" height="28px"><rect id="ee-background" x="0" y="0" width="90" height="28" style="fill: white; fill-opacity: 0; pointer-events: none;"/><title>back</title><g transform="matrix(0.04615825042128563, 0, 0, 0.04615825042128563, 10.30798625946045, 3.6221415996551514)"><g>
	<g>
		<path d="M420.361,192.229c-1.83-0.297-3.682-0.434-5.535-0.41H99.305l6.88-3.2c6.725-3.183,12.843-7.515,18.08-12.8l88.48-88.48&#10;&#9;&#9;&#9;c11.653-11.124,13.611-29.019,4.64-42.4c-10.441-14.259-30.464-17.355-44.724-6.914c-1.152,0.844-2.247,1.764-3.276,2.754&#10;&#9;&#9;&#9;l-160,160C-3.119,213.269-3.13,233.53,9.36,246.034c0.008,0.008,0.017,0.017,0.025,0.025l160,160&#10;&#9;&#9;&#9;c12.514,12.479,32.775,12.451,45.255-0.063c0.982-0.985,1.899-2.033,2.745-3.137c8.971-13.381,7.013-31.276-4.64-42.4&#10;&#9;&#9;&#9;l-88.32-88.64c-4.695-4.7-10.093-8.641-16-11.68l-9.6-4.32h314.24c16.347,0.607,30.689-10.812,33.76-26.88&#10;&#9;&#9;&#9;C449.654,211.494,437.806,195.059,420.361,192.229z" style="fill: rgb(114, 165, 167);"/>
	</g>
</g><g>
</g><g>
</g><g>
</g><g>
</g><g>
</g><g>
</g><g>
</g><g>
</g><g>
</g><g>
</g><g>
</g><g>
</g><g>
</g><g>
</g><g>
</g></g><g transform="matrix(0.046158362179994576, 0, 0, 0.046158362179994576, 46.43076705932616, 3.622141599655151)"><g>
	<g>
		<path d="M420.361,192.229c-1.83-0.297-3.682-0.434-5.535-0.41H99.305l6.88-3.2c6.725-3.183,12.843-7.515,18.08-12.8l88.48-88.48&#10;&#9;&#9;&#9;c11.653-11.124,13.611-29.019,4.64-42.4c-10.441-14.259-30.464-17.355-44.724-6.914c-1.152,0.844-2.247,1.764-3.276,2.754&#10;&#9;&#9;&#9;l-160,160C-3.119,213.269-3.13,233.53,9.36,246.034c0.008,0.008,0.017,0.017,0.025,0.025l160,160&#10;&#9;&#9;&#9;c12.514,12.479,32.775,12.451,45.255-0.063c0.982-0.985,1.899-2.033,2.745-3.137c8.971-13.381,7.013-31.276-4.64-42.4&#10;&#9;&#9;&#9;l-88.32-88.64c-4.695-4.7-10.093-8.641-16-11.68l-9.6-4.32h314.24c16.347,0.607,30.689-10.812,33.76-26.88&#10;&#9;&#9;&#9;C449.654,211.494,437.806,195.059,420.361,192.229z" style="fill: rgb(255, 255, 255);"/>
	</g>
</g><g>
</g><g>
</g><g>
</g><g>
</g><g>
</g><g>
</g><g>
</g><g>
</g><g>
</g><g>
</g><g>
</g><g>
</g><g>
</g><g>
</g><g>
</g></g></svg>