<?xml version="1.0" encoding="utf-8"?>
<svg id="master-artboard" viewBox="0 0 1390 600" version="1.1" xmlns="http://www.w3.org/2000/svg" x="0px" y="0px" style="enable-background:new 0 0 336 235.2;" width="1390px" height="600px"><rect id="ee-background" x="0" y="0" width="1390" height="600" style="fill: white; fill-opacity: 0; pointer-events: none;"/><defs><style id="ee-google-fonts">@import url(https://fonts.googleapis.com/css?family=Abel:400|Great+Vibes:400);</style><path id="text-path-0" d="M 1081.9345703125 450.4975280761719 A 100 3 0 0 1 1151.66845703125 450.4975280761719 A 100 3 0 0 1 1081.9345703125 450.4975280761719" style="fill: none; stroke: red; stroke-width: 2;"/></defs><g transform="matrix(0.9977071285247803, 0, 0, 0.9977071285247803, 0.579287528991699, -150.08810424804688)"><g transform="matrix(1.0717136859893799, 0, 0, 1.0717136859893799, 11.726890563964844, 168.72988891601562)"><g>
	<g>
		
	<path d="M501.333,490.667H10.667C4.779,490.667,0,495.445,0,501.333C0,507.221,4.779,512,10.667,512h490.667&#10;&#9;&#9;&#9;c5.888,0,10.667-4.779,10.667-10.667C512,495.445,507.221,490.667,501.333,490.667z" style="fill: rgb(102, 102, 102);"/></g>
</g><g>
	<g>
		<path d="M96,362.667H32c-5.888,0-10.667,4.779-10.667,10.667v128C21.333,507.221,26.112,512,32,512h64&#10;&#9;&#9;&#9;c5.888,0,10.667-4.779,10.667-10.667v-128C106.667,367.445,101.888,362.667,96,362.667z M85.333,490.667H42.667V384h42.667&#10;&#9;&#9;&#9;V490.667z" style="fill: rgb(102, 102, 102);"/>
	</g>
</g><g>
	<g>
		<path d="M224,256h-64c-5.888,0-10.667,4.779-10.667,10.667v234.667c0,5.888,4.779,10.667,10.667,10.667h64&#10;&#9;&#9;&#9;c5.888,0,10.667-4.779,10.667-10.667V266.667C234.667,260.779,229.888,256,224,256z M213.333,490.667h-42.667V277.333h42.667&#10;&#9;&#9;&#9;V490.667z" style="fill: rgb(102, 102, 102);"/>
	</g>
</g><g>
	<g>
		<path d="M352,298.667h-64c-5.888,0-10.667,4.779-10.667,10.667v192c0,5.888,4.779,10.667,10.667,10.667h64&#10;&#9;&#9;&#9;c5.888,0,10.667-4.779,10.667-10.667v-192C362.667,303.445,357.888,298.667,352,298.667z M341.333,490.667h-42.667V320h42.667&#10;&#9;&#9;&#9;V490.667z" style="fill: rgb(102, 102, 102);"/>
	</g>
</g><g>
	<g>
		<path d="M480,170.667h-64c-5.888,0-10.667,4.779-10.667,10.667v320c0,5.888,4.779,10.667,10.667,10.667h64&#10;&#9;&#9;&#9;c5.888,0,10.667-4.779,10.667-10.667v-320C490.667,175.445,485.888,170.667,480,170.667z M469.333,490.667h-42.667V192h42.667&#10;&#9;&#9;&#9;V490.667z" style="fill: rgb(102, 102, 102);"/>
	</g>
</g><g>
	<g>
		<path d="M64,192c-23.531,0-42.667,19.136-42.667,42.667c0,23.531,19.136,42.667,42.667,42.667&#10;&#9;&#9;&#9;c23.531,0,42.667-19.136,42.667-42.667C106.667,211.136,87.531,192,64,192z M64,256c-11.776,0-21.333-9.579-21.333-21.333&#10;&#9;&#9;&#9;c0-11.755,9.557-21.333,21.333-21.333s21.333,9.579,21.333,21.333C85.333,246.421,75.776,256,64,256z" style="fill: rgb(102, 102, 102);"/>
	</g>
</g><g>
	<g>
		<path d="M192,85.333c-23.531,0-42.667,19.136-42.667,42.667c0,23.531,19.136,42.667,42.667,42.667s42.667-19.136,42.667-42.667&#10;&#9;&#9;&#9;C234.667,104.469,215.531,85.333,192,85.333z M192,149.333c-11.776,0-21.333-9.579-21.333-21.333&#10;&#9;&#9;&#9;c0-11.755,9.557-21.333,21.333-21.333s21.333,9.579,21.333,21.333C213.333,139.755,203.776,149.333,192,149.333z" style="fill: rgb(102, 102, 102);"/>
	</g>
</g><g>
	<g>
		<path d="M320,128c-23.531,0-42.667,19.136-42.667,42.667c0,23.531,19.136,42.667,42.667,42.667&#10;&#9;&#9;&#9;c23.531,0,42.667-19.136,42.667-42.667C362.667,147.136,343.531,128,320,128z M320,192c-11.776,0-21.333-9.579-21.333-21.333&#10;&#9;&#9;&#9;c0-11.755,9.557-21.333,21.333-21.333s21.333,9.579,21.333,21.333C341.333,182.421,331.776,192,320,192z" style="fill: rgb(102, 102, 102);"/>
	</g>
</g><g>
	<g>
		<path d="M448,0c-23.531,0-42.667,19.136-42.667,42.667c0,23.531,19.136,42.667,42.667,42.667&#10;&#9;&#9;&#9;c23.531,0,42.667-19.136,42.667-42.667C490.667,19.136,471.531,0,448,0z M448,64c-11.776,0-21.333-9.579-21.333-21.333&#10;&#9;&#9;&#9;c0-11.755,9.557-21.333,21.333-21.333s21.333,9.579,21.333,21.333C469.333,54.421,459.776,64,448,64z" style="fill: rgb(102, 102, 102);"/>
	</g>
</g><g>
	<g>
		<path d="M432.939,57.728c-4.16-4.16-10.923-4.16-15.083,0l-82.773,82.773c-4.16,4.16-4.16,10.923,0,15.083&#10;&#9;&#9;&#9;c2.091,2.069,4.821,3.115,7.552,3.115c2.709,0,5.44-1.024,7.531-3.115l82.773-82.773&#10;&#9;&#9;&#9;C437.099,68.651,437.099,61.888,432.939,57.728z" style="fill: rgb(102, 102, 102);"/>
	</g>
</g><g>
	<g>
		<path d="M294.208,146.048l-68.523-19.541c-5.739-1.664-11.563,1.664-13.163,7.339c-1.621,5.675,1.664,11.563,7.317,13.184&#10;&#9;&#9;&#9;l68.523,19.541c0.981,0.277,1.963,0.405,2.923,0.405c4.651,0,8.917-3.051,10.261-7.744&#10;&#9;&#9;&#9;C303.168,153.579,299.883,147.669,294.208,146.048z" style="fill: rgb(102, 102, 102);"/>
	</g>
</g><g>
	<g>
		<path d="M175.36,141.291c-3.669-4.608-10.368-5.355-14.976-1.707l-80.427,64.128c-4.608,3.691-5.376,10.389-1.685,14.997&#10;&#9;&#9;&#9;c2.112,2.645,5.227,4.011,8.341,4.011c2.325,0,4.672-0.768,6.635-2.304l80.427-64.128&#10;&#9;&#9;&#9;C178.283,152.597,179.051,145.899,175.36,141.291z" style="fill: rgb(102, 102, 102);"/>
	</g>
</g><g>
</g><g>
</g><g>
</g><g>
</g><g>
</g><g>
</g><g>
</g><g>
</g><g>
</g><g>
</g><g>
</g><g>
</g><g>
</g><g>
</g><g>
</g></g><path d="M 860.4566040039062 461.63525390625 C 860.4566040039062 461.8885803222656 860.4099731445312 462.125244140625 860.316650390625 462.3452453613281 C 860.2233276367188 462.56524658203125 860.0933227539062 462.7585754394531 859.9266357421875 462.9252624511719 C 859.7599487304688 463.0919189453125 859.566650390625 463.221923828125 859.3466186523438 463.31524658203125 C 859.1266479492188 463.4085998535156 858.8899536132812 463.45526123046875 858.6366577148438 463.45526123046875 L 858.1066284179688 463.45526123046875 C 857.8599853515625 463.45526123046875 857.623291015625 463.4085998535156 857.3966064453125 463.31524658203125 C 857.1766357421875 463.221923828125 856.9832763671875 463.0919189453125 856.816650390625 462.9252624511719 C 856.6499633789062 462.7585754394531 856.5199584960938 462.56524658203125 856.4266357421875 462.3452453613281 C 856.3333129882812 462.125244140625 856.28662109375 461.8885803222656 856.28662109375 461.63525390625 L 856.28662109375 457.6552429199219 C 856.28662109375 457.4085998535156 856.3333129882812 457.1752624511719 856.4266357421875 456.95526123046875 C 856.5199584960938 456.72857666015625 856.6499633789062 456.5352478027344 856.816650390625 456.375244140625 C 856.9832763671875 456.2085876464844 857.1766357421875 456.0785827636719 857.3966064453125 455.9852600097656 C 857.623291015625 455.88525390625 857.8599853515625 455.83526611328125 858.1066284179688 455.83526611328125 L 858.6366577148438 455.83526611328125 C 858.8899536132812 455.83526611328125 859.1266479492188 455.88525390625 859.3466186523438 455.9852600097656 C 859.566650390625 456.0785827636719 859.7599487304688 456.2085876464844 859.9266357421875 456.375244140625 C 860.0933227539062 456.5352478027344 860.2233276367188 456.72857666015625 860.316650390625 456.95526123046875 C 860.4099731445312 457.1752624511719 860.4566040039062 457.4085998535156 860.4566040039062 457.6552429199219 L 860.4566040039062 457.95526123046875 L 859.78662109375 458.06524658203125 L 859.78662109375 457.6552429199219 C 859.78662109375 457.4952697753906 859.7566528320312 457.3419189453125 859.6966552734375 457.19525146484375 C 859.6366577148438 457.0552673339844 859.5532836914062 456.9319152832031 859.4466552734375 456.82525634765625 C 859.3399658203125 456.7185974121094 859.2133178710938 456.6319274902344 859.066650390625 456.56524658203125 C 858.9266357421875 456.5052490234375 858.7733154296875 456.4752502441406 858.6066284179688 456.4752502441406 L 858.1466064453125 456.4752502441406 C 857.97998046875 456.4752502441406 857.8233032226562 456.5052490234375 857.6766357421875 456.56524658203125 C 857.53662109375 456.6319274902344 857.4099731445312 456.7185974121094 857.296630859375 456.82525634765625 C 857.18994140625 456.9319152832031 857.1066284179688 457.0552673339844 857.046630859375 457.19525146484375 C 856.9866333007812 457.3419189453125 856.9566040039062 457.4952697753906 856.9566040039062 457.6552429199219 L 856.9566040039062 461.63525390625 C 856.9566040039062 461.8019104003906 856.9866333007812 461.9585876464844 857.046630859375 462.1052551269531 C 857.1066284179688 462.2452697753906 857.18994140625 462.36859130859375 857.296630859375 462.4752502441406 C 857.4099731445312 462.5885925292969 857.53662109375 462.6752624511719 857.6766357421875 462.7352600097656 C 857.8233032226562 462.7952575683594 857.97998046875 462.82525634765625 858.1466064453125 462.82525634765625 L 858.6066284179688 462.82525634765625 C 858.7733154296875 462.82525634765625 858.9266357421875 462.7952575683594 859.066650390625 462.7352600097656 C 859.2133178710938 462.6752624511719 859.3399658203125 462.5885925292969 859.4466552734375 462.4752502441406 C 859.5532836914062 462.36859130859375 859.6366577148438 462.2452697753906 859.6966552734375 462.1052551269531 C 859.7566528320312 461.9585876464844 859.78662109375 461.8019104003906 859.78662109375 461.63525390625 L 859.78662109375 461.2352600097656 L 860.4566040039062 461.3452453613281 L 860.4566040039062 461.63525390625 L 860.4566040039062 461.63525390625 ZM 865.2632446289062 461.9052429199219 C 865.2632446289062 462.11859130859375 865.2232666015625 462.318603515625 865.1432495117188 462.5052490234375 C 865.063232421875 462.6985778808594 864.9532470703125 462.8652648925781 864.813232421875 463.0052490234375 C 864.6665649414062 463.145263671875 864.4999389648438 463.2552490234375 864.313232421875 463.33526611328125 C 864.1265869140625 463.4152526855469 863.9265747070312 463.45526123046875 863.7132568359375 463.45526123046875 L 863.2832641601562 463.45526123046875 C 863.0699462890625 463.45526123046875 862.8699340820312 463.4152526855469 862.6832885742188 463.33526611328125 C 862.4899291992188 463.2552490234375 862.3232421875 463.145263671875 862.1832885742188 463.0052490234375 C 862.0432739257812 462.8652648925781 861.9332885742188 462.6985778808594 861.853271484375 462.5052490234375 C 861.7732543945312 462.318603515625 861.7332763671875 462.11859130859375 861.7332763671875 461.9052429199219 L 861.7332763671875 459.5152587890625 C 861.7332763671875 459.3019104003906 861.7732543945312 459.0986022949219 861.853271484375 458.9052429199219 C 861.9332885742188 458.7185974121094 862.0432739257812 458.5552673339844 862.1832885742188 458.4152526855469 C 862.3232421875 458.2752685546875 862.4899291992188 458.16192626953125 862.6832885742188 458.07525634765625 C 862.8699340820312 457.9952697753906 863.0699462890625 457.95526123046875 863.2832641601562 457.95526123046875 L 863.7132568359375 457.95526123046875 C 863.9265747070312 457.95526123046875 864.1265869140625 457.9952697753906 864.313232421875 458.07525634765625 C 864.4999389648438 458.16192626953125 864.6665649414062 458.2752685546875 864.813232421875 458.4152526855469 C 864.9532470703125 458.5552673339844 865.063232421875 458.7185974121094 865.1432495117188 458.9052429199219 C 865.2232666015625 459.0986022949219 865.2632446289062 459.3019104003906 865.2632446289062 459.5152587890625 L 865.2632446289062 461.9052429199219 L 865.2632446289062 461.9052429199219 M 864.6332397460938 459.4752502441406 C 864.6332397460938 459.3486022949219 864.6065673828125 459.22857666015625 864.5532836914062 459.1152648925781 C 864.506591796875 459.0085754394531 864.4432373046875 458.91192626953125 864.36328125 458.82525634765625 C 864.276611328125 458.7452697753906 864.1765747070312 458.6819152832031 864.063232421875 458.63525390625 C 863.9566040039062 458.5819091796875 863.8399047851562 458.5552673339844 863.7132568359375 458.5552673339844 L 863.2832641601562 458.5552673339844 C 863.1566162109375 458.5552673339844 863.03662109375 458.5819091796875 862.9232788085938 458.63525390625 C 862.8099365234375 458.6819152832031 862.7132568359375 458.7452697753906 862.6332397460938 458.82525634765625 C 862.5532836914062 458.91192626953125 862.486572265625 459.0085754394531 862.4332885742188 459.1152648925781 C 862.3865966796875 459.22857666015625 862.36328125 459.3486022949219 862.36328125 459.4752502441406 L 862.36328125 461.93524169921875 C 862.36328125 462.0619201660156 862.3865966796875 462.1819152832031 862.4332885742188 462.2952575683594 C 862.486572265625 462.4085998535156 862.5532836914062 462.5052490234375 862.6332397460938 462.58526611328125 C 862.7132568359375 462.67193603515625 862.8099365234375 462.73858642578125 862.9232788085938 462.7852478027344 C 863.03662109375 462.8319091796875 863.1566162109375 462.8552551269531 863.2832641601562 462.8552551269531 L 863.7132568359375 462.8552551269531 C 863.8399047851562 462.8552551269531 863.9566040039062 462.8319091796875 864.063232421875 462.7852478027344 C 864.1765747070312 462.73858642578125 864.276611328125 462.67193603515625 864.36328125 462.58526611328125 C 864.4432373046875 462.5052490234375 864.506591796875 462.4085998535156 864.5532836914062 462.2952575683594 C 864.6065673828125 462.1819152832031 864.6332397460938 462.0619201660156 864.6332397460938 461.93524169921875 L 864.6332397460938 459.4752502441406 ZM 870.0707397460938 461.9052429199219 C 870.0707397460938 462.11859130859375 870.03076171875 462.318603515625 869.9507446289062 462.5052490234375 C 869.8707275390625 462.6985778808594 869.7607421875 462.8652648925781 869.6207275390625 463.0052490234375 C 869.4740600585938 463.145263671875 869.3074340820312 463.2552490234375 869.1207275390625 463.33526611328125 C 868.93408203125 463.4152526855469 868.7340698242188 463.45526123046875 868.520751953125 463.45526123046875 L 868.0907592773438 463.45526123046875 C 867.87744140625 463.45526123046875 867.6774291992188 463.4152526855469 867.4907836914062 463.33526611328125 C 867.2974243164062 463.2552490234375 867.1307373046875 463.145263671875 866.9907836914062 463.0052490234375 C 866.8507690429688 462.8652648925781 866.7407836914062 462.6985778808594 866.6607666015625 462.5052490234375 C 866.5807495117188 462.318603515625 866.540771484375 462.11859130859375 866.540771484375 461.9052429199219 L 866.540771484375 459.5152587890625 C 866.540771484375 459.3019104003906 866.5807495117188 459.0986022949219 866.6607666015625 458.9052429199219 C 866.7407836914062 458.7185974121094 866.8507690429688 458.5552673339844 866.9907836914062 458.4152526855469 C 867.1307373046875 458.2752685546875 867.2974243164062 458.16192626953125 867.4907836914062 458.07525634765625 C 867.6774291992188 457.9952697753906 867.87744140625 457.95526123046875 868.0907592773438 457.95526123046875 L 868.520751953125 457.95526123046875 C 868.7340698242188 457.95526123046875 868.93408203125 457.9952697753906 869.1207275390625 458.07525634765625 C 869.3074340820312 458.16192626953125 869.4740600585938 458.2752685546875 869.6207275390625 458.4152526855469 C 869.7607421875 458.5552673339844 869.8707275390625 458.7185974121094 869.9507446289062 458.9052429199219 C 870.03076171875 459.0986022949219 870.0707397460938 459.3019104003906 870.0707397460938 459.5152587890625 L 870.0707397460938 461.9052429199219 L 870.0707397460938 461.9052429199219 M 869.4407348632812 459.4752502441406 C 869.4407348632812 459.3486022949219 869.4140625 459.22857666015625 869.3607788085938 459.1152648925781 C 869.3140869140625 459.0085754394531 869.250732421875 458.91192626953125 869.1707763671875 458.82525634765625 C 869.0841064453125 458.7452697753906 868.9840698242188 458.6819152832031 868.8707275390625 458.63525390625 C 868.7640991210938 458.5819091796875 868.6473999023438 458.5552673339844 868.520751953125 458.5552673339844 L 868.0907592773438 458.5552673339844 C 867.964111328125 458.5552673339844 867.8441162109375 458.5819091796875 867.7307739257812 458.63525390625 C 867.617431640625 458.6819152832031 867.520751953125 458.7452697753906 867.4407348632812 458.82525634765625 C 867.3607788085938 458.91192626953125 867.2940673828125 459.0085754394531 867.2407836914062 459.1152648925781 C 867.194091796875 459.22857666015625 867.1707763671875 459.3486022949219 867.1707763671875 459.4752502441406 L 867.1707763671875 461.93524169921875 C 867.1707763671875 462.0619201660156 867.194091796875 462.1819152832031 867.2407836914062 462.2952575683594 C 867.2940673828125 462.4085998535156 867.3607788085938 462.5052490234375 867.4407348632812 462.58526611328125 C 867.520751953125 462.67193603515625 867.617431640625 462.73858642578125 867.7307739257812 462.7852478027344 C 867.8441162109375 462.8319091796875 867.964111328125 462.8552551269531 868.0907592773438 462.8552551269531 L 868.520751953125 462.8552551269531 C 868.6473999023438 462.8552551269531 868.7640991210938 462.8319091796875 868.8707275390625 462.7852478027344 C 868.9840698242188 462.73858642578125 869.0841064453125 462.67193603515625 869.1707763671875 462.58526611328125 C 869.250732421875 462.5052490234375 869.3140869140625 462.4085998535156 869.3607788085938 462.2952575683594 C 869.4140625 462.1819152832031 869.4407348632812 462.0619201660156 869.4407348632812 461.93524169921875 L 869.4407348632812 459.4752502441406 ZM 874.4782104492188 463.3552551269531 L 872.3181762695312 460.70526123046875 L 874.4782104492188 458.06524658203125 L 875.3081665039062 458.06524658203125 L 873.0881958007812 460.70526123046875 L 875.3081665039062 463.3552551269531 L 874.4782104492188 463.3552551269531 M 871.5581665039062 463.3552551269531 L 871.5581665039062 455.94525146484375 L 872.1881713867188 455.94525146484375 L 872.1881713867188 463.3552551269531 L 871.5581665039062 463.3552551269531 ZM 876.3156127929688 456.7852478027344 L 876.3156127929688 455.94525146484375 L 877.0556030273438 455.94525146484375 L 877.0556030273438 456.7852478027344 L 876.3156127929688 456.7852478027344 M 876.3656005859375 463.3552551269531 L 876.3656005859375 458.06524658203125 L 876.99560546875 458.06524658203125 L 876.99560546875 463.3552551269531 L 876.3656005859375 463.3552551269531 ZM 882.0169677734375 461.9052429199219 C 882.0169677734375 462.11859130859375 881.9769897460938 462.318603515625 881.89697265625 462.5052490234375 C 881.8169555664062 462.6985778808594 881.7069702148438 462.8652648925781 881.5669555664062 463.0052490234375 C 881.4202880859375 463.145263671875 881.253662109375 463.2552490234375 881.0669555664062 463.33526611328125 C 880.8803100585938 463.4152526855469 880.6802978515625 463.45526123046875 880.4669799804688 463.45526123046875 L 880.0369873046875 463.45526123046875 C 879.8236694335938 463.45526123046875 879.6236572265625 463.4152526855469 879.43701171875 463.33526611328125 C 879.24365234375 463.2552490234375 879.0769653320312 463.145263671875 878.93701171875 463.0052490234375 C 878.7969970703125 462.8652648925781 878.68701171875 462.6985778808594 878.6069946289062 462.5052490234375 C 878.5269775390625 462.318603515625 878.4869995117188 462.11859130859375 878.4869995117188 461.9052429199219 L 878.4869995117188 459.5152587890625 C 878.4869995117188 459.3019104003906 878.5269775390625 459.0986022949219 878.6069946289062 458.9052429199219 C 878.68701171875 458.7185974121094 878.7969970703125 458.5552673339844 878.93701171875 458.4152526855469 C 879.0769653320312 458.2752685546875 879.24365234375 458.16192626953125 879.43701171875 458.07525634765625 C 879.6236572265625 457.9952697753906 879.8236694335938 457.95526123046875 880.0369873046875 457.95526123046875 L 880.4669799804688 457.95526123046875 C 880.6802978515625 457.95526123046875 880.8803100585938 457.9952697753906 881.0669555664062 458.07525634765625 C 881.253662109375 458.16192626953125 881.4202880859375 458.2752685546875 881.5669555664062 458.4152526855469 C 881.7069702148438 458.5552673339844 881.8169555664062 458.7185974121094 881.89697265625 458.9052429199219 C 881.9769897460938 459.0986022949219 882.0169677734375 459.3019104003906 882.0169677734375 459.5152587890625 L 882.0169677734375 460.7552490234375 L 879.1170043945312 460.7552490234375 L 879.1170043945312 461.93524169921875 C 879.1170043945312 462.0619201660156 879.1403198242188 462.1819152832031 879.18701171875 462.2952575683594 C 879.2402954101562 462.4085998535156 879.3070068359375 462.5052490234375 879.386962890625 462.58526611328125 C 879.4669799804688 462.67193603515625 879.5636596679688 462.73858642578125 879.677001953125 462.7852478027344 C 879.7903442382812 462.8319091796875 879.9103393554688 462.8552551269531 880.0369873046875 462.8552551269531 L 880.4669799804688 462.8552551269531 C 880.5936279296875 462.8552551269531 880.7103271484375 462.8319091796875 880.8169555664062 462.7852478027344 C 880.9302978515625 462.73858642578125 881.0303344726562 462.67193603515625 881.1170043945312 462.58526611328125 C 881.1969604492188 462.5052490234375 881.2603149414062 462.4085998535156 881.3070068359375 462.2952575683594 C 881.3602905273438 462.1819152832031 881.386962890625 462.0619201660156 881.386962890625 461.93524169921875 L 881.386962890625 461.58526611328125 L 882.0169677734375 461.69525146484375 L 882.0169677734375 461.9052429199219 L 882.0169677734375 461.9052429199219 M 881.386962890625 459.4752502441406 C 881.386962890625 459.3486022949219 881.3602905273438 459.22857666015625 881.3070068359375 459.1152648925781 C 881.2603149414062 459.0085754394531 881.1969604492188 458.91192626953125 881.1170043945312 458.82525634765625 C 881.0303344726562 458.7452697753906 880.9302978515625 458.6819152832031 880.8169555664062 458.63525390625 C 880.7103271484375 458.5819091796875 880.5936279296875 458.5552673339844 880.4669799804688 458.5552673339844 L 880.0369873046875 458.5552673339844 C 879.9103393554688 458.5552673339844 879.7903442382812 458.5819091796875 879.677001953125 458.63525390625 C 879.5636596679688 458.6819152832031 879.4669799804688 458.7452697753906 879.386962890625 458.82525634765625 C 879.3070068359375 458.91192626953125 879.2402954101562 459.0085754394531 879.18701171875 459.1152648925781 C 879.1403198242188 459.22857666015625 879.1170043945312 459.3486022949219 879.1170043945312 459.4752502441406 L 879.1170043945312 460.2652587890625 L 881.386962890625 460.2652587890625 L 881.386962890625 459.4752502441406 Z" transform="matrix(21.954927444458008, 0, 0, 21.954927444458008, -18133.876953125, -9791.1474609375)" style="fill: rgb(102, 102, 102); white-space: pre; color: rgb(102, 102, 102);"/><path d="M 1117.7423095703125 418.1708679199219 C 1117.7220458984375 413.6908874511719 1115.865234375 411.4592590332031 1112.1719970703125 411.4759521484375 C 1111.858642578125 411.4773864746094 1111.5419921875 411.47882080078125 1111.221923828125 411.4802551269531 C 1109.809326171875 411.6399841308594 1108.9847412109375 411.3670349121094 1108.7481689453125 410.66143798828125 C 1108.5050048828125 409.9558410644531 1108.856201171875 409.4842529296875 1109.8018798828125 409.24664306640625 C 1110.74072265625 409.0024108886719 1111.763916015625 408.9577941894531 1112.8712158203125 409.1127624511719 C 1116.960693359375 409.7209777832031 1119.7593994140625 411.635009765625 1121.267333984375 414.8548889160156 C 1122.3028564453125 416.81689453125 1122.824951171875 418.7412109375 1122.8333740234375 420.62786865234375 C 1122.864013671875 427.39447021484375 1120.4140625 434.0522766113281 1115.483642578125 440.6012878417969 C 1110.5601806640625 447.2369384765625 1104.165283203125 450.5725402832031 1096.2987060546875 450.6081237792969 C 1093.3853759765625 450.62127685546875 1091.0216064453125 449.8052978515625 1089.20751953125 448.1601257324219 C 1087.3934326171875 446.5149841308594 1086.4801025390625 444.3157653808594 1086.4676513671875 441.5624694824219 C 1086.4527587890625 438.2558288574219 1088.3140869140625 432.6606750488281 1092.0518798828125 424.77703857421875 C 1085.6536865234375 436.9994201660156 1081.515380859375 444.02154541015625 1079.636962890625 445.8433837890625 C 1078.853515625 446.5535888671875 1078.4591064453125 446.3186950683594 1078.4537353515625 445.1387023925781 C 1078.4527587890625 444.9053955078125 1078.531494140625 444.62835693359375 1078.6900634765625 444.3076477050781 C 1081.427001953125 440.681884765625 1086.869140625 430.8238525390625 1095.0164794921875 414.7335510253906 C 1103.1639404296875 398.6498718261719 1108.879638671875 388.1239318847656 1112.1639404296875 383.15570068359375 C 1114.81982421875 379.29034423828125 1117.4044189453125 377.3519592285156 1119.917724609375 377.3406066894531 C 1119.917724609375 377.3406066894531 1119.957763671875 377.3404235839844 1120.0377197265625 377.3400573730469 L 1120.627685546875 377.33740234375 C 1120.707763671875 377.3370361328125 1121.398193359375 377.4505615234375 1122.6993408203125 377.67803955078125 C 1123.99365234375 377.905517578125 1124.9571533203125 377.941162109375 1125.58984375 377.78497314453125 C 1123.0023193359375 380.5500183105469 1118.937255859375 386.07513427734375 1113.3946533203125 394.3602600097656 C 1099.640869140625 414.9559631347656 1092.7869873046875 430.3271179199219 1092.832763671875 440.4736633300781 C 1092.8516845703125 444.6402893066406 1094.198974609375 446.9942321777344 1096.874755859375 447.53546142578125 C 1097.1085205078125 447.6144104003906 1097.3853759765625 447.6531677246094 1097.705322265625 447.6517333984375 C 1100.138671875 447.6407165527344 1103.1754150390625 445.4436340332031 1106.815673828125 441.06048583984375 C 1110.455810546875 436.67730712890625 1113.443359375 431.6871032714844 1115.778076171875 426.0898132324219 C 1117.09814453125 423.17047119140625 1117.7529296875 420.53082275390625 1117.7423095703125 418.1708679199219 ZM 1135.1083984375 432.1886291503906 C 1133.9913330078125 434.8548889160156 1133.4222412109375 437.84130859375 1133.4012451171875 441.1479187011719 C 1133.38720703125 443.3478698730469 1133.865966796875 445.1009521484375 1134.837646484375 446.40716552734375 C 1135.8160400390625 447.706787109375 1137.2086181640625 448.3623352050781 1139.0152587890625 448.37384033203125 C 1146.175048828125 448.41949462890625 1152.7078857421875 441.7376708984375 1158.6134033203125 428.328369140625 C 1159.1748046875 427.0719299316406 1159.8482666015625 426.52288818359375 1160.6339111328125 426.68121337890625 C 1160.94677734375 426.7632141113281 1161.1021728515625 426.96087646484375 1161.1002197265625 427.2742004394531 C 1161.09814453125 427.5942077636719 1160.1983642578125 429.6551818847656 1158.4007568359375 433.4571228027344 C 1156.6097412109375 437.2591247558594 1154.8001708984375 440.3343200683594 1152.9718017578125 442.6827087402344 C 1148.93017578125 448.1637268066406 1143.9593505859375 450.8854064941406 1138.0594482421875 450.8478088378906 C 1134.912841796875 450.8277587890625 1132.2427978515625 449.7873840332031 1130.0491943359375 447.7266845703125 C 1127.8621826171875 445.6726989746094 1126.780029296875 442.875732421875 1126.8026123046875 439.3358154296875 C 1126.8251953125 435.7958984375 1127.69580078125 432.044677734375 1129.4144287109375 428.0822448730469 C 1131.1263427734375 424.1197204589844 1133.449951171875 420.4344787597656 1136.385009765625 417.0264587402344 C 1139.3134765625 413.62506103515625 1142.672607421875 411.1497497558594 1146.4625244140625 409.60052490234375 C 1148.274169921875 408.8254089355469 1150.0067138671875 408.443115234375 1151.6600341796875 408.4536437988281 C 1153.313232421875 408.4642028808594 1154.8436279296875 408.9472961425781 1156.2508544921875 409.9029541015625 C 1157.5838623046875 411.011474609375 1158.2459716796875 412.2357177734375 1158.2374267578125 413.57568359375 C 1158.2073974609375 418.29559326171875 1155.34521484375 422.80078125 1149.651123046875 427.0912170410156 C 1147.916015625 428.41351318359375 1145.4718017578125 429.5946350097656 1142.318359375 430.6345520019531 C 1139.1650390625 431.6811218261719 1136.7615966796875 432.19915771484375 1135.1083984375 432.1886291503906 M 1155.04833984375 413.43536376953125 C 1155.058349609375 411.862060546875 1154.433349609375 411.0713806152344 1153.17333984375 411.0633544921875 C 1150.973388671875 411.04931640625 1147.6129150390625 413.7413024902344 1143.0916748046875 419.1392517089844 C 1140.3973388671875 422.4288024902344 1138.0137939453125 426.1103515625 1135.941162109375 430.1838684082031 C 1137.2811279296875 430.1924133300781 1139.234130859375 429.73486328125 1141.800048828125 428.81121826171875 C 1144.359375 427.8808288574219 1146.5872802734375 426.635009765625 1148.4840087890625 425.07373046875 C 1152.8341064453125 421.4013977050781 1155.022216796875 417.5219421386719 1155.04833984375 413.43536376953125 Z" transform="matrix(1.1231902837753296, 0, 0, 1.1231902837753296, 59.476261138916016, -124.18630981445312)" style="fill: rgb(102, 102, 102); white-space: pre; color: rgb(51, 51, 51); fill-opacity: 1; stroke: rgb(0, 0, 0); stroke-width: 0;"/><path d="M 949.846923828125 136.6072540283203 C 949.846923828125 137.17391967773438 949.740234375 137.70726013183594 949.5269165039062 138.20726013183594 C 949.3135986328125 138.70726013183594 949.020263671875 139.14724731445312 948.6469116210938 139.52725219726562 C 948.2669067382812 139.9005889892578 947.826904296875 140.1939239501953 947.326904296875 140.40725708007812 C 946.826904296875 140.62059020996094 946.2935791015625 140.7272491455078 945.7269287109375 140.7272491455078 L 944.5269165039062 140.7272491455078 C 943.9602661132812 140.7272491455078 943.423583984375 140.62059020996094 942.9169311523438 140.40725708007812 C 942.4169311523438 140.1939239501953 941.9769287109375 139.9005889892578 941.596923828125 139.52725219726562 C 941.2235717773438 139.14724731445312 940.9302368164062 138.70726013183594 940.7169189453125 138.20726013183594 C 940.5036010742188 137.70726013183594 940.3969116210938 137.17391967773438 940.3969116210938 136.6072540283203 L 940.3969116210938 127.58724975585938 C 940.3969116210938 127.013916015625 940.5036010742188 126.47724914550781 940.7169189453125 125.97724914550781 C 940.9302368164062 125.47724914550781 941.2235717773438 125.04058837890625 941.596923828125 124.66725158691406 C 941.9769287109375 124.2939224243164 942.4169311523438 123.99725341796875 942.9169311523438 123.77725219726562 C 943.423583984375 123.56391906738281 943.9602661132812 123.4572525024414 944.5269165039062 123.4572525024414 L 945.7269287109375 123.4572525024414 C 946.2935791015625 123.4572525024414 946.826904296875 123.56391906738281 947.326904296875 123.77725219726562 C 947.826904296875 123.99725341796875 948.2669067382812 124.2939224243164 948.6469116210938 124.66725158691406 C 949.020263671875 125.04058837890625 949.3135986328125 125.47724914550781 949.5269165039062 125.97724914550781 C 949.740234375 126.47724914550781 949.846923828125 127.013916015625 949.846923828125 127.58724975585938 L 949.846923828125 128.2672576904297 L 948.3369140625 128.49725341796875 L 948.3369140625 127.58724975585938 C 948.3369140625 127.2072525024414 948.2669067382812 126.85725402832031 948.1268920898438 126.5372543334961 C 947.9869384765625 126.21058654785156 947.7969360351562 125.92725372314453 947.5569458007812 125.687255859375 C 947.3102416992188 125.44058990478516 947.0269165039062 125.24725341796875 946.7069091796875 125.10725402832031 C 946.3802490234375 124.96725463867188 946.0302734375 124.89725494384766 945.6569213867188 124.89725494384766 L 944.596923828125 124.89725494384766 C 944.2235717773438 124.89725494384766 943.8735961914062 124.96725463867188 943.5469360351562 125.10725402832031 C 943.2269287109375 125.24725341796875 942.943603515625 125.44058990478516 942.6968994140625 125.687255859375 C 942.4502563476562 125.92725372314453 942.2568969726562 126.21058654785156 942.116943359375 126.5372543334961 C 941.9769287109375 126.85725402832031 941.9069213867188 127.2072525024414 941.9069213867188 127.58724975585938 L 941.9069213867188 136.6072540283203 C 941.9069213867188 136.9805908203125 941.9769287109375 137.33058166503906 942.116943359375 137.65725708007812 C 942.2568969726562 137.9772491455078 942.4502563476562 138.26058959960938 942.6968994140625 138.5072479248047 C 942.943603515625 138.75392150878906 943.2269287109375 138.94725036621094 943.5469360351562 139.08724975585938 C 943.8735961914062 139.2272491455078 944.2235717773438 139.29725646972656 944.596923828125 139.29725646972656 L 945.6569213867188 139.29725646972656 C 946.0302734375 139.29725646972656 946.3802490234375 139.2272491455078 946.7069091796875 139.08724975585938 C 947.0269165039062 138.94725036621094 947.3102416992188 138.75392150878906 947.5569458007812 138.5072479248047 C 947.7969360351562 138.26058959960938 947.9869384765625 137.9772491455078 948.1268920898438 137.65725708007812 C 948.2669067382812 137.33058166503906 948.3369140625 136.9805908203125 948.3369140625 136.6072540283203 L 948.3369140625 135.69725036621094 L 949.846923828125 135.937255859375 L 949.846923828125 136.6072540283203 L 949.846923828125 136.6072540283203 ZM 960.7509765625 137.20726013183594 C 960.7509765625 137.687255859375 960.6575927734375 138.1439208984375 960.470947265625 138.57725524902344 C 960.2909545898438 139.00392150878906 960.0409545898438 139.37725830078125 959.720947265625 139.69725036621094 C 959.4009399414062 140.0172576904297 959.0242919921875 140.2705841064453 958.5909423828125 140.45726013183594 C 958.164306640625 140.6372528076172 957.7076416015625 140.7272491455078 957.220947265625 140.7272491455078 L 956.2609252929688 140.7272491455078 C 955.7742919921875 140.7272491455078 955.317626953125 140.6372528076172 954.8909301757812 140.45726013183594 C 954.4576416015625 140.2705841064453 954.0809326171875 140.0172576904297 953.7609252929688 139.69725036621094 C 953.4409790039062 139.37725830078125 953.1909790039062 139.00392150878906 953.0109252929688 138.57725524902344 C 952.8242797851562 138.1439208984375 952.73095703125 137.687255859375 952.73095703125 137.20726013183594 L 952.73095703125 131.78724670410156 C 952.73095703125 131.3072509765625 952.8242797851562 130.8505859375 953.0109252929688 130.41725158691406 C 953.1909790039062 129.99058532714844 953.4409790039062 129.61724853515625 953.7609252929688 129.29725646972656 C 954.0809326171875 128.9772491455078 954.4576416015625 128.7239227294922 954.8909301757812 128.53724670410156 C 955.317626953125 128.3572540283203 955.7742919921875 128.2672576904297 956.2609252929688 128.2672576904297 L 957.220947265625 128.2672576904297 C 957.7076416015625 128.2672576904297 958.164306640625 128.3572540283203 958.5909423828125 128.53724670410156 C 959.0242919921875 128.7239227294922 959.4009399414062 128.9772491455078 959.720947265625 129.29725646972656 C 960.0409545898438 129.61724853515625 960.2909545898438 129.99058532714844 960.470947265625 130.41725158691406 C 960.6575927734375 130.8505859375 960.7509765625 131.3072509765625 960.7509765625 131.78724670410156 L 960.7509765625 137.20726013183594 L 960.7509765625 137.20726013183594 M 959.3109741210938 131.70726013183594 C 959.3109741210938 131.42059326171875 959.2542724609375 131.1505889892578 959.1409301757812 130.89724731445312 C 959.0343017578125 130.6439208984375 958.8876342773438 130.42059326171875 958.700927734375 130.2272491455078 C 958.5142822265625 130.04058837890625 958.2909545898438 129.8939208984375 958.0309448242188 129.78724670410156 C 957.7776489257812 129.67391967773438 957.5076293945312 129.61724853515625 957.220947265625 129.61724853515625 L 956.2609252929688 129.61724853515625 C 955.9743041992188 129.61724853515625 955.700927734375 129.67391967773438 955.4409790039062 129.78724670410156 C 955.1876220703125 129.8939208984375 954.9676513671875 130.04058837890625 954.7809448242188 130.2272491455078 C 954.5942993164062 130.42059326171875 954.4476318359375 130.6439208984375 954.3409423828125 130.89724731445312 C 954.2276000976562 131.1505889892578 954.1709594726562 131.42059326171875 954.1709594726562 131.70726013183594 L 954.1709594726562 137.28724670410156 C 954.1709594726562 137.57391357421875 954.2276000976562 137.8439178466797 954.3409423828125 138.09725952148438 C 954.4476318359375 138.3505859375 954.5942993164062 138.57391357421875 954.7809448242188 138.7672576904297 C 954.9676513671875 138.95391845703125 955.1876220703125 139.1005859375 955.4409790039062 139.20726013183594 C 955.700927734375 139.3139190673828 955.9743041992188 139.36724853515625 956.2609252929688 139.36724853515625 L 957.220947265625 139.36724853515625 C 957.5076293945312 139.36724853515625 957.7776489257812 139.3139190673828 958.0309448242188 139.20726013183594 C 958.2909545898438 139.1005859375 958.5142822265625 138.95391845703125 958.700927734375 138.7672576904297 C 958.8876342773438 138.57391357421875 959.0343017578125 138.3505859375 959.1409301757812 138.09725952148438 C 959.2542724609375 137.8439178466797 959.3109741210938 137.57391357421875 959.3109741210938 137.28724670410156 L 959.3109741210938 131.70726013183594 ZM 971.1692504882812 140.49725341796875 L 970.3692626953125 139.27725219726562 C 970.0426025390625 139.7239227294922 969.6326293945312 140.07725524902344 969.1392822265625 140.33724975585938 C 968.6459350585938 140.59725952148438 968.10595703125 140.7272491455078 967.519287109375 140.7272491455078 L 967.1592407226562 140.7272491455078 C 966.672607421875 140.7272491455078 966.2159423828125 140.6372528076172 965.7892456054688 140.45726013183594 C 965.35595703125 140.2705841064453 964.979248046875 140.0172576904297 964.6592407226562 139.69725036621094 C 964.3392944335938 139.37725830078125 964.0892944335938 139.00392150878906 963.9092407226562 138.57725524902344 C 963.7225952148438 138.1439208984375 963.6292724609375 137.687255859375 963.6292724609375 137.20726013183594 L 963.6292724609375 131.78724670410156 C 963.6292724609375 131.3072509765625 963.7225952148438 130.8505859375 963.9092407226562 130.41725158691406 C 964.0892944335938 129.99058532714844 964.3392944335938 129.61724853515625 964.6592407226562 129.29725646972656 C 964.979248046875 128.9772491455078 965.35595703125 128.7239227294922 965.7892456054688 128.53724670410156 C 966.2159423828125 128.3572540283203 966.672607421875 128.2672576904297 967.1592407226562 128.2672576904297 L 967.519287109375 128.2672576904297 C 968.0592651367188 128.2672576904297 968.5592651367188 128.37391662597656 969.019287109375 128.58724975585938 C 969.479248046875 128.8072509765625 969.8759155273438 129.11392211914062 970.2092895507812 129.5072479248047 L 970.2092895507812 123.69725036621094 L 971.6492919921875 123.69725036621094 L 971.6492919921875 140.49725341796875 L 971.1692504882812 140.49725341796875 M 970.2092895507812 131.70726013183594 C 970.2092895507812 131.42059326171875 970.152587890625 131.1505889892578 970.0392456054688 130.89724731445312 C 969.9326171875 130.6439208984375 969.7859497070312 130.42059326171875 969.5992431640625 130.2272491455078 C 969.41259765625 130.04058837890625 969.1892700195312 129.8939208984375 968.9292602539062 129.78724670410156 C 968.6759643554688 129.67391967773438 968.4059448242188 129.61724853515625 968.1192626953125 129.61724853515625 L 967.1592407226562 129.61724853515625 C 966.8726196289062 129.61724853515625 966.5992431640625 129.67391967773438 966.3392944335938 129.78724670410156 C 966.0859375 129.8939208984375 965.865966796875 130.04058837890625 965.6792602539062 130.2272491455078 C 965.4926147460938 130.42059326171875 965.345947265625 130.6439208984375 965.2392578125 130.89724731445312 C 965.1259155273438 131.1505889892578 965.0692749023438 131.42059326171875 965.0692749023438 131.70726013183594 L 965.0692749023438 137.28724670410156 C 965.0692749023438 137.57391357421875 965.1259155273438 137.8439178466797 965.2392578125 138.09725952148438 C 965.345947265625 138.3505859375 965.4926147460938 138.57391357421875 965.6792602539062 138.7672576904297 C 965.865966796875 138.95391845703125 966.0859375 139.1005859375 966.3392944335938 139.20726013183594 C 966.5992431640625 139.3139190673828 966.8726196289062 139.36724853515625 967.1592407226562 139.36724853515625 L 968.1192626953125 139.36724853515625 C 968.4059448242188 139.36724853515625 968.6759643554688 139.3139190673828 968.9292602539062 139.20726013183594 C 969.1892700195312 139.1005859375 969.41259765625 138.95391845703125 969.5992431640625 138.7672576904297 C 969.7859497070312 138.57391357421875 969.9326171875 138.3505859375 970.0392456054688 138.09725952148438 C 970.152587890625 137.8439178466797 970.2092895507812 137.57391357421875 970.2092895507812 137.28724670410156 L 970.2092895507812 131.70726013183594 ZM 974.8875732421875 125.61725616455078 L 974.8875732421875 123.69725036621094 L 976.5675659179688 123.69725036621094 L 976.5675659179688 125.61725616455078 L 974.8875732421875 125.61725616455078 M 975.007568359375 140.49725341796875 L 975.007568359375 128.49725341796875 L 976.4475708007812 128.49725341796875 L 976.4475708007812 140.49725341796875 L 975.007568359375 140.49725341796875 ZM 986.3927001953125 140.49725341796875 L 986.3927001953125 131.70726013183594 C 986.3927001953125 131.42059326171875 986.3359985351562 131.1505889892578 986.22265625 130.89724731445312 C 986.1160278320312 130.6439208984375 985.9693603515625 130.42059326171875 985.7826538085938 130.2272491455078 C 985.5960083007812 130.04058837890625 985.3726806640625 129.8939208984375 985.1126708984375 129.78724670410156 C 984.859375 129.67391967773438 984.58935546875 129.61724853515625 984.3026733398438 129.61724853515625 L 983.3426513671875 129.61724853515625 C 983.0560302734375 129.61724853515625 982.7826538085938 129.67391967773438 982.522705078125 129.78724670410156 C 982.2693481445312 129.8939208984375 982.0493774414062 130.04058837890625 981.8626708984375 130.2272491455078 C 981.676025390625 130.42059326171875 981.5293579101562 130.6439208984375 981.4226684570312 130.89724731445312 C 981.309326171875 131.1505889892578 981.252685546875 131.42059326171875 981.252685546875 131.70726013183594 L 981.252685546875 140.49725341796875 L 979.8126831054688 140.49725341796875 L 979.8126831054688 128.49725341796875 L 980.2926635742188 128.49725341796875 L 981.0827026367188 129.71725463867188 C 981.4093627929688 129.2705841064453 981.8193359375 128.91725158691406 982.3126831054688 128.65725708007812 C 982.8126831054688 128.39724731445312 983.3560180664062 128.2672576904297 983.9426879882812 128.2672576904297 L 984.3026733398438 128.2672576904297 C 984.7893676757812 128.2672576904297 985.2460327148438 128.3572540283203 985.6726684570312 128.53724670410156 C 986.1060180664062 128.7239227294922 986.482666015625 128.9772491455078 986.8026733398438 129.29725646972656 C 987.1226806640625 129.61724853515625 987.3726806640625 129.99058532714844 987.5526733398438 130.41725158691406 C 987.7393188476562 130.8505859375 987.8327026367188 131.3072509765625 987.8327026367188 131.78724670410156 L 987.8327026367188 140.49725341796875 L 986.3927001953125 140.49725341796875 ZM 998.8410034179688 142.0072479248047 C 998.8410034179688 142.49392700195312 998.7509765625 142.94058227539062 998.5709838867188 143.34725952148438 C 998.3843383789062 143.75392150878906 998.1309814453125 144.1005859375 997.8109741210938 144.3872528076172 C 997.490966796875 144.67391967773438 997.11767578125 144.89724731445312 996.6909790039062 145.0572509765625 C 996.2576904296875 145.21725463867188 995.801025390625 145.29725646972656 995.3209838867188 145.29725646972656 L 994.7210083007812 145.29725646972656 C 994.2343139648438 145.29725646972656 993.7776489257812 145.21725463867188 993.3510131835938 145.0572509765625 C 992.9176635742188 144.89724731445312 992.541015625 144.67391967773438 992.2210083007812 144.3872528076172 C 991.9010009765625 144.1005859375 991.6510009765625 143.75392150878906 991.4710083007812 143.34725952148438 C 991.2843017578125 142.94058227539062 991.1909790039062 142.49392700195312 991.1909790039062 142.0072479248047 L 991.1909790039062 141.95726013183594 C 991.1909790039062 141.49058532714844 991.2776489257812 141.0639190673828 991.4509887695312 140.67724609375 C 991.6243286132812 140.28392028808594 991.857666015625 139.9439239501953 992.1510009765625 139.65725708007812 C 991.7776489257812 139.4305877685547 991.4810180664062 139.12391662597656 991.260986328125 138.7372589111328 C 991.0343017578125 138.3505859375 990.9210205078125 137.92059326171875 990.9210205078125 137.44725036621094 C 990.9210205078125 137.02725219726562 991.010986328125 136.6372528076172 991.1909790039062 136.27725219726562 C 991.3709716796875 135.91058349609375 991.61767578125 135.61392211914062 991.9309692382812 135.3872528076172 C 991.5576782226562 135.0605926513672 991.260986328125 134.66725158691406 991.041015625 134.20726013183594 C 990.8209838867188 133.74725341796875 990.7109985351562 133.24392700195312 990.7109985351562 132.69725036621094 L 990.7109985351562 131.78724670410156 C 990.7109985351562 131.3072509765625 990.8043212890625 130.8505859375 990.990966796875 130.41725158691406 C 991.1710205078125 129.99058532714844 991.4210205078125 129.61724853515625 991.740966796875 129.29725646972656 C 992.0609741210938 128.9772491455078 992.4376831054688 128.7239227294922 992.8709716796875 128.53724670410156 C 993.2976684570312 128.3572540283203 993.7543334960938 128.2672576904297 994.240966796875 128.2672576904297 L 994.8410034179688 128.2672576904297 C 995.4276733398438 128.2672576904297 995.9676513671875 128.39724731445312 996.4609985351562 128.65725708007812 C 996.954345703125 128.91725158691406 997.36767578125 129.2705841064453 997.7009887695312 129.71725463867188 L 998.4810180664062 128.49725341796875 L 998.9609985351562 128.49725341796875 L 998.9609985351562 132.69725036621094 C 998.9609985351562 133.17724609375 998.8709716796875 133.63392639160156 998.6909790039062 134.0672607421875 C 998.5043334960938 134.49392700195312 998.2509765625 134.86724853515625 997.9309692382812 135.187255859375 C 997.6110229492188 135.5072479248047 997.2376708984375 135.76058959960938 996.8109741210938 135.94725036621094 C 996.377685546875 136.12725830078125 995.9176635742188 136.21725463867188 995.4309692382812 136.21725463867188 L 993.3510131835938 136.21725463867188 C 993.184326171875 136.21725463867188 993.0276489257812 136.25057983398438 992.8809814453125 136.3172607421875 C 992.7343139648438 136.38392639160156 992.6043090820312 136.4739227294922 992.490966796875 136.58724975585938 C 992.377685546875 136.6939239501953 992.2876586914062 136.82391357421875 992.2210083007812 136.9772491455078 C 992.1610107421875 137.13058471679688 992.1309814453125 137.28724670410156 992.1309814453125 137.44725036621094 C 992.1309814453125 137.61392211914062 992.1610107421875 137.7705841064453 992.2210083007812 137.91725158691406 C 992.2876586914062 138.0639190673828 992.377685546875 138.1939239501953 992.490966796875 138.3072509765625 C 992.6043090820312 138.42059326171875 992.7343139648438 138.51058959960938 992.8809814453125 138.57725524902344 C 993.0276489257812 138.6372528076172 993.184326171875 138.66725158691406 993.3510131835938 138.66725158691406 L 995.3209838867188 138.66725158691406 C 995.801025390625 138.66725158691406 996.2576904296875 138.74725341796875 996.6909790039062 138.90725708007812 C 997.11767578125 139.0672607421875 997.490966796875 139.29391479492188 997.8109741210938 139.58724975585938 C 998.1309814453125 139.87391662597656 998.3843383789062 140.2205810546875 998.5709838867188 140.62725830078125 C 998.7509765625 141.03392028808594 998.8410034179688 141.4772491455078 998.8410034179688 141.95726013183594 L 998.8410034179688 142.0072479248047 L 998.8410034179688 142.0072479248047 M 997.531005859375 131.70726013183594 C 997.531005859375 131.42059326171875 997.4776611328125 131.1505889892578 997.3709716796875 130.89724731445312 C 997.2576904296875 130.6439208984375 997.107666015625 130.42059326171875 996.9210205078125 130.2272491455078 C 996.7276611328125 130.04058837890625 996.5043334960938 129.8939208984375 996.2509765625 129.78724670410156 C 995.9976806640625 129.67391967773438 995.7243041992188 129.61724853515625 995.4309692382812 129.61724853515625 L 994.240966796875 129.61724853515625 C 993.954345703125 129.61724853515625 993.6809692382812 129.67391967773438 993.4210205078125 129.78724670410156 C 993.1676635742188 129.8939208984375 992.9476928710938 130.04058837890625 992.760986328125 130.2272491455078 C 992.5743408203125 130.42059326171875 992.4276733398438 130.6439208984375 992.3209838867188 130.89724731445312 C 992.2076416015625 131.1505889892578 992.1510009765625 131.42059326171875 992.1510009765625 131.70726013183594 L 992.1510009765625 132.77725219726562 C 992.1510009765625 133.0639190673828 992.2076416015625 133.33392333984375 992.3209838867188 133.58724975585938 C 992.4276733398438 133.84059143066406 992.5743408203125 134.0605926513672 992.760986328125 134.24725341796875 C 992.9476928710938 134.44058227539062 993.1676635742188 134.59059143066406 993.4210205078125 134.69725036621094 C 993.6809692382812 134.80392456054688 993.954345703125 134.8572540283203 994.240966796875 134.8572540283203 L 995.4309692382812 134.8572540283203 C 995.7243041992188 134.8572540283203 995.9976806640625 134.80392456054688 996.2509765625 134.69725036621094 C 996.5043334960938 134.59059143066406 996.7276611328125 134.44058227539062 996.9210205078125 134.24725341796875 C 997.107666015625 134.0605926513672 997.2576904296875 133.84059143066406 997.3709716796875 133.58724975585938 C 997.4776611328125 133.33392333984375 997.531005859375 133.0639190673828 997.531005859375 132.77725219726562 L 997.531005859375 131.70726013183594 M 997.4710083007812 141.8872528076172 C 997.4710083007812 141.6005859375 997.4176635742188 141.3439178466797 997.3109741210938 141.11724853515625 C 997.204345703125 140.88392639160156 997.0543212890625 140.69058227539062 996.8610229492188 140.53724670410156 C 996.67431640625 140.37725830078125 996.454345703125 140.25392150878906 996.2009887695312 140.16725158691406 C 995.9476928710938 140.08058166503906 995.6776733398438 140.03724670410156 995.3909912109375 140.03724670410156 L 994.6510009765625 140.03724670410156 C 994.3643188476562 140.03724670410156 994.0910034179688 140.08058166503906 993.8309936523438 140.16725158691406 C 993.57763671875 140.25392150878906 993.357666015625 140.37725830078125 993.1710205078125 140.53724670410156 C 992.9843139648438 140.69058227539062 992.837646484375 140.88392639160156 992.7310180664062 141.11724853515625 C 992.61767578125 141.3439178466797 992.5609741210938 141.6005859375 992.5609741210938 141.8872528076172 L 992.5609741210938 142.07725524902344 C 992.5609741210938 142.37059020996094 992.61767578125 142.63058471679688 992.7310180664062 142.8572540283203 C 992.837646484375 143.08392333984375 992.9843139648438 143.27725219726562 993.1710205078125 143.437255859375 C 993.357666015625 143.59725952148438 993.57763671875 143.71725463867188 993.8309936523438 143.79725646972656 C 994.0910034179688 143.88392639160156 994.3643188476562 143.92724609375 994.6510009765625 143.92724609375 L 995.3909912109375 143.92724609375 C 995.6776733398438 143.92724609375 995.9476928710938 143.88392639160156 996.2009887695312 143.79725646972656 C 996.454345703125 143.71725463867188 996.67431640625 143.59725952148438 996.8610229492188 143.437255859375 C 997.0543212890625 143.27725219726562 997.204345703125 143.08392333984375 997.3109741210938 142.8572540283203 C 997.4176635742188 142.63058471679688 997.4710083007812 142.37059020996094 997.4710083007812 142.07725524902344 L 997.4710083007812 141.8872528076172 Z" transform="matrix(11.999585151672363, 0, 0, 11.999585151672363, -10614.798828125, -1015.0138549804688)" style="fill: rgb(102, 102, 102); white-space: pre; color: rgb(51, 51, 51);"/></g></svg>