<?xml version="1.0" encoding="utf-8"?>
<svg id="master-artboard" viewBox="0 0 1390 600" version="1.1" xmlns="http://www.w3.org/2000/svg" x="0px" y="0px" style="enable-background:new 0 0 336 235.2;" width="1390px" height="600px"><rect id="ee-background" x="0" y="0" width="1390" height="600" style="fill: white; fill-opacity: 0; pointer-events: none;"/><defs><style id="ee-google-fonts">@import url(https://fonts.googleapis.com/css?family=Abel:400|Great+Vibes:400);</style><path id="text-path-0" d="M 1081.9345703125 450.4975280761719 A 100 3 0 0 1 1151.66845703125 450.4975280761719 A 100 3 0 0 1 1081.9345703125 450.4975280761719" style="fill: none; stroke: red; stroke-width: 2;"/></defs><g transform="matrix(1.0692563842491722, 0, 0, 1.0692563842491722, 12.279289720880115, 18.254908718656225)"><g>
	<g>
		
	<path d="M501.333,490.667H10.667C4.779,490.667,0,495.445,0,501.333C0,507.221,4.779,512,10.667,512h490.667&#10;&#9;&#9;&#9;c5.888,0,10.667-4.779,10.667-10.667C512,495.445,507.221,490.667,501.333,490.667z" style="fill: rgb(114, 165, 167);"/></g>
</g><g>
	<g>
		<path d="M96,362.667H32c-5.888,0-10.667,4.779-10.667,10.667v128C21.333,507.221,26.112,512,32,512h64&#10;&#9;&#9;&#9;c5.888,0,10.667-4.779,10.667-10.667v-128C106.667,367.445,101.888,362.667,96,362.667z M85.333,490.667H42.667V384h42.667&#10;&#9;&#9;&#9;V490.667z" style="fill: rgb(114, 165, 167);"/>
	</g>
</g><g>
	<g>
		<path d="M224,256h-64c-5.888,0-10.667,4.779-10.667,10.667v234.667c0,5.888,4.779,10.667,10.667,10.667h64&#10;&#9;&#9;&#9;c5.888,0,10.667-4.779,10.667-10.667V266.667C234.667,260.779,229.888,256,224,256z M213.333,490.667h-42.667V277.333h42.667&#10;&#9;&#9;&#9;V490.667z" style="fill: rgb(114, 165, 167);"/>
	</g>
</g><g>
	<g>
		<path d="M352,298.667h-64c-5.888,0-10.667,4.779-10.667,10.667v192c0,5.888,4.779,10.667,10.667,10.667h64&#10;&#9;&#9;&#9;c5.888,0,10.667-4.779,10.667-10.667v-192C362.667,303.445,357.888,298.667,352,298.667z M341.333,490.667h-42.667V320h42.667&#10;&#9;&#9;&#9;V490.667z" style="fill: rgb(114, 165, 167);"/>
	</g>
</g><g>
	<g>
		<path d="M480,170.667h-64c-5.888,0-10.667,4.779-10.667,10.667v320c0,5.888,4.779,10.667,10.667,10.667h64&#10;&#9;&#9;&#9;c5.888,0,10.667-4.779,10.667-10.667v-320C490.667,175.445,485.888,170.667,480,170.667z M469.333,490.667h-42.667V192h42.667&#10;&#9;&#9;&#9;V490.667z" style="fill: rgb(114, 165, 167);"/>
	</g>
</g><g>
	<g>
		<path d="M64,192c-23.531,0-42.667,19.136-42.667,42.667c0,23.531,19.136,42.667,42.667,42.667&#10;&#9;&#9;&#9;c23.531,0,42.667-19.136,42.667-42.667C106.667,211.136,87.531,192,64,192z M64,256c-11.776,0-21.333-9.579-21.333-21.333&#10;&#9;&#9;&#9;c0-11.755,9.557-21.333,21.333-21.333s21.333,9.579,21.333,21.333C85.333,246.421,75.776,256,64,256z" style="fill: rgb(114, 165, 167);"/>
	</g>
</g><g>
	<g>
		<path d="M192,85.333c-23.531,0-42.667,19.136-42.667,42.667c0,23.531,19.136,42.667,42.667,42.667s42.667-19.136,42.667-42.667&#10;&#9;&#9;&#9;C234.667,104.469,215.531,85.333,192,85.333z M192,149.333c-11.776,0-21.333-9.579-21.333-21.333&#10;&#9;&#9;&#9;c0-11.755,9.557-21.333,21.333-21.333s21.333,9.579,21.333,21.333C213.333,139.755,203.776,149.333,192,149.333z" style="fill: rgb(114, 165, 167);"/>
	</g>
</g><g>
	<g>
		<path d="M320,128c-23.531,0-42.667,19.136-42.667,42.667c0,23.531,19.136,42.667,42.667,42.667&#10;&#9;&#9;&#9;c23.531,0,42.667-19.136,42.667-42.667C362.667,147.136,343.531,128,320,128z M320,192c-11.776,0-21.333-9.579-21.333-21.333&#10;&#9;&#9;&#9;c0-11.755,9.557-21.333,21.333-21.333s21.333,9.579,21.333,21.333C341.333,182.421,331.776,192,320,192z" style="fill: rgb(114, 165, 167);"/>
	</g>
</g><g>
	<g>
		<path d="M448,0c-23.531,0-42.667,19.136-42.667,42.667c0,23.531,19.136,42.667,42.667,42.667&#10;&#9;&#9;&#9;c23.531,0,42.667-19.136,42.667-42.667C490.667,19.136,471.531,0,448,0z M448,64c-11.776,0-21.333-9.579-21.333-21.333&#10;&#9;&#9;&#9;c0-11.755,9.557-21.333,21.333-21.333s21.333,9.579,21.333,21.333C469.333,54.421,459.776,64,448,64z" style="fill: rgb(114, 165, 167);"/>
	</g>
</g><g>
	<g>
		<path d="M432.939,57.728c-4.16-4.16-10.923-4.16-15.083,0l-82.773,82.773c-4.16,4.16-4.16,10.923,0,15.083&#10;&#9;&#9;&#9;c2.091,2.069,4.821,3.115,7.552,3.115c2.709,0,5.44-1.024,7.531-3.115l82.773-82.773&#10;&#9;&#9;&#9;C437.099,68.651,437.099,61.888,432.939,57.728z" style="fill: rgb(114, 165, 167);"/>
	</g>
</g><g>
	<g>
		<path d="M175.36,141.291c-3.669-4.608-10.368-5.355-14.976-1.707l-80.427,64.128c-4.608,3.691-5.376,10.389-1.685,14.997&#10;&#9;&#9;&#9;c2.112,2.645,5.227,4.011,8.341,4.011c2.325,0,4.672-0.768,6.635-2.304l80.427-64.128&#10;&#9;&#9;&#9;C178.283,152.597,179.051,145.899,175.36,141.291z" style="fill: rgb(114, 165, 167);"/>
	</g>
</g><g>
</g><g>
</g><g>
</g><g>
</g><g>
</g><g>
</g><g>
</g><g>
</g><g>
</g><g>
</g><g>
</g><g>
</g><g>
</g><g>
</g><g>
</g></g><path d="M 860.4566040039062 461.666015625 C 860.4566040039062 461.9193420410156 860.4099731445312 462.156005859375 860.316650390625 462.3760070800781 C 860.2233276367188 462.59600830078125 860.0933227539062 462.7893371582031 859.9266357421875 462.9560241699219 C 859.7599487304688 463.1226806640625 859.566650390625 463.252685546875 859.3466186523438 463.34600830078125 C 859.1266479492188 463.4393615722656 858.8899536132812 463.48602294921875 858.6366577148438 463.48602294921875 L 858.1066284179688 463.48602294921875 C 857.8599853515625 463.48602294921875 857.623291015625 463.4393615722656 857.3966064453125 463.34600830078125 C 857.1766357421875 463.252685546875 856.9832763671875 463.1226806640625 856.816650390625 462.9560241699219 C 856.6499633789062 462.7893371582031 856.5199584960938 462.59600830078125 856.4266357421875 462.3760070800781 C 856.3333129882812 462.156005859375 856.28662109375 461.9193420410156 856.28662109375 461.666015625 L 856.28662109375 457.6860046386719 C 856.28662109375 457.4393615722656 856.3333129882812 457.2060241699219 856.4266357421875 456.98602294921875 C 856.5199584960938 456.75933837890625 856.6499633789062 456.5660095214844 856.816650390625 456.406005859375 C 856.9832763671875 456.2393493652344 857.1766357421875 456.1093444824219 857.3966064453125 456.0160217285156 C 857.623291015625 455.916015625 857.8599853515625 455.86602783203125 858.1066284179688 455.86602783203125 L 858.6366577148438 455.86602783203125 C 858.8899536132812 455.86602783203125 859.1266479492188 455.916015625 859.3466186523438 456.0160217285156 C 859.566650390625 456.1093444824219 859.7599487304688 456.2393493652344 859.9266357421875 456.406005859375 C 860.0933227539062 456.5660095214844 860.2233276367188 456.75933837890625 860.316650390625 456.98602294921875 C 860.4099731445312 457.2060241699219 860.4566040039062 457.4393615722656 860.4566040039062 457.6860046386719 L 860.4566040039062 457.98602294921875 L 859.78662109375 458.09600830078125 L 859.78662109375 457.6860046386719 C 859.78662109375 457.5260314941406 859.7566528320312 457.3726806640625 859.6966552734375 457.22601318359375 C 859.6366577148438 457.0860290527344 859.5532836914062 456.9626770019531 859.4466552734375 456.85601806640625 C 859.3399658203125 456.7493591308594 859.2133178710938 456.6626892089844 859.066650390625 456.59600830078125 C 858.9266357421875 456.5360107421875 858.7733154296875 456.5060119628906 858.6066284179688 456.5060119628906 L 858.1466064453125 456.5060119628906 C 857.97998046875 456.5060119628906 857.8233032226562 456.5360107421875 857.6766357421875 456.59600830078125 C 857.53662109375 456.6626892089844 857.4099731445312 456.7493591308594 857.296630859375 456.85601806640625 C 857.18994140625 456.9626770019531 857.1066284179688 457.0860290527344 857.046630859375 457.22601318359375 C 856.9866333007812 457.3726806640625 856.9566040039062 457.5260314941406 856.9566040039062 457.6860046386719 L 856.9566040039062 461.666015625 C 856.9566040039062 461.8326721191406 856.9866333007812 461.9893493652344 857.046630859375 462.1360168457031 C 857.1066284179688 462.2760314941406 857.18994140625 462.39935302734375 857.296630859375 462.5060119628906 C 857.4099731445312 462.6193542480469 857.53662109375 462.7060241699219 857.6766357421875 462.7660217285156 C 857.8233032226562 462.8260192871094 857.97998046875 462.85601806640625 858.1466064453125 462.85601806640625 L 858.6066284179688 462.85601806640625 C 858.7733154296875 462.85601806640625 858.9266357421875 462.8260192871094 859.066650390625 462.7660217285156 C 859.2133178710938 462.7060241699219 859.3399658203125 462.6193542480469 859.4466552734375 462.5060119628906 C 859.5532836914062 462.39935302734375 859.6366577148438 462.2760314941406 859.6966552734375 462.1360168457031 C 859.7566528320312 461.9893493652344 859.78662109375 461.8326721191406 859.78662109375 461.666015625 L 859.78662109375 461.2660217285156 L 860.4566040039062 461.3760070800781 L 860.4566040039062 461.666015625 L 860.4566040039062 461.666015625 ZM 865.26318359375 461.9360046386719 C 865.26318359375 462.14935302734375 865.2232055664062 462.349365234375 865.1431884765625 462.5360107421875 C 865.0631713867188 462.7293395996094 864.9531860351562 462.8960266113281 864.8131713867188 463.0360107421875 C 864.66650390625 463.176025390625 864.4998779296875 463.2860107421875 864.3131713867188 463.36602783203125 C 864.1265258789062 463.4460144042969 863.926513671875 463.48602294921875 863.7131958007812 463.48602294921875 L 863.283203125 463.48602294921875 C 863.0698852539062 463.48602294921875 862.869873046875 463.4460144042969 862.6832275390625 463.36602783203125 C 862.4898681640625 463.2860107421875 862.3231811523438 463.176025390625 862.1832275390625 463.0360107421875 C 862.043212890625 462.8960266113281 861.9332275390625 462.7293395996094 861.8532104492188 462.5360107421875 C 861.773193359375 462.349365234375 861.7332153320312 462.14935302734375 861.7332153320312 461.9360046386719 L 861.7332153320312 459.5460205078125 C 861.7332153320312 459.3326721191406 861.773193359375 459.1293640136719 861.8532104492188 458.9360046386719 C 861.9332275390625 458.7493591308594 862.043212890625 458.5860290527344 862.1832275390625 458.4460144042969 C 862.3231811523438 458.3060302734375 862.4898681640625 458.19268798828125 862.6832275390625 458.10601806640625 C 862.869873046875 458.0260314941406 863.0698852539062 457.98602294921875 863.283203125 457.98602294921875 L 863.7131958007812 457.98602294921875 C 863.926513671875 457.98602294921875 864.1265258789062 458.0260314941406 864.3131713867188 458.10601806640625 C 864.4998779296875 458.19268798828125 864.66650390625 458.3060302734375 864.8131713867188 458.4460144042969 C 864.9531860351562 458.5860290527344 865.0631713867188 458.7493591308594 865.1431884765625 458.9360046386719 C 865.2232055664062 459.1293640136719 865.26318359375 459.3326721191406 865.26318359375 459.5460205078125 L 865.26318359375 461.9360046386719 L 865.26318359375 461.9360046386719 M 864.6331787109375 459.5060119628906 C 864.6331787109375 459.3793640136719 864.6065063476562 459.25933837890625 864.55322265625 459.1460266113281 C 864.5065307617188 459.0393371582031 864.4431762695312 458.94268798828125 864.3632202148438 458.85601806640625 C 864.2765502929688 458.7760314941406 864.176513671875 458.7126770019531 864.0631713867188 458.666015625 C 863.95654296875 458.6126708984375 863.83984375 458.5860290527344 863.7131958007812 458.5860290527344 L 863.283203125 458.5860290527344 C 863.1565551757812 458.5860290527344 863.0365600585938 458.6126708984375 862.9232177734375 458.666015625 C 862.8098754882812 458.7126770019531 862.7131958007812 458.7760314941406 862.6331787109375 458.85601806640625 C 862.55322265625 458.94268798828125 862.4865112304688 459.0393371582031 862.4332275390625 459.1460266113281 C 862.3865356445312 459.25933837890625 862.3632202148438 459.3793640136719 862.3632202148438 459.5060119628906 L 862.3632202148438 461.96600341796875 C 862.3632202148438 462.0926818847656 862.3865356445312 462.2126770019531 862.4332275390625 462.3260192871094 C 862.4865112304688 462.4393615722656 862.55322265625 462.5360107421875 862.6331787109375 462.61602783203125 C 862.7131958007812 462.70269775390625 862.8098754882812 462.76934814453125 862.9232177734375 462.8160095214844 C 863.0365600585938 462.8626708984375 863.1565551757812 462.8860168457031 863.283203125 462.8860168457031 L 863.7131958007812 462.8860168457031 C 863.83984375 462.8860168457031 863.95654296875 462.8626708984375 864.0631713867188 462.8160095214844 C 864.176513671875 462.76934814453125 864.2765502929688 462.70269775390625 864.3632202148438 462.61602783203125 C 864.4431762695312 462.5360107421875 864.5065307617188 462.4393615722656 864.55322265625 462.3260192871094 C 864.6065063476562 462.2126770019531 864.6331787109375 462.0926818847656 864.6331787109375 461.96600341796875 L 864.6331787109375 459.5060119628906 ZM 870.0706176757812 461.9360046386719 C 870.0706176757812 462.14935302734375 870.0306396484375 462.349365234375 869.9506225585938 462.5360107421875 C 869.87060546875 462.7293395996094 869.7606201171875 462.8960266113281 869.62060546875 463.0360107421875 C 869.4739379882812 463.176025390625 869.3073120117188 463.2860107421875 869.12060546875 463.36602783203125 C 868.9339599609375 463.4460144042969 868.7339477539062 463.48602294921875 868.5206298828125 463.48602294921875 L 868.0906372070312 463.48602294921875 C 867.8773193359375 463.48602294921875 867.6773071289062 463.4460144042969 867.4906616210938 463.36602783203125 C 867.2973022460938 463.2860107421875 867.130615234375 463.176025390625 866.9906616210938 463.0360107421875 C 866.8506469726562 462.8960266113281 866.7406616210938 462.7293395996094 866.66064453125 462.5360107421875 C 866.5806274414062 462.349365234375 866.5406494140625 462.14935302734375 866.5406494140625 461.9360046386719 L 866.5406494140625 459.5460205078125 C 866.5406494140625 459.3326721191406 866.5806274414062 459.1293640136719 866.66064453125 458.9360046386719 C 866.7406616210938 458.7493591308594 866.8506469726562 458.5860290527344 866.9906616210938 458.4460144042969 C 867.130615234375 458.3060302734375 867.2973022460938 458.19268798828125 867.4906616210938 458.10601806640625 C 867.6773071289062 458.0260314941406 867.8773193359375 457.98602294921875 868.0906372070312 457.98602294921875 L 868.5206298828125 457.98602294921875 C 868.7339477539062 457.98602294921875 868.9339599609375 458.0260314941406 869.12060546875 458.10601806640625 C 869.3073120117188 458.19268798828125 869.4739379882812 458.3060302734375 869.62060546875 458.4460144042969 C 869.7606201171875 458.5860290527344 869.87060546875 458.7493591308594 869.9506225585938 458.9360046386719 C 870.0306396484375 459.1293640136719 870.0706176757812 459.3326721191406 870.0706176757812 459.5460205078125 L 870.0706176757812 461.9360046386719 L 870.0706176757812 461.9360046386719 M 869.4406127929688 459.5060119628906 C 869.4406127929688 459.3793640136719 869.4139404296875 459.25933837890625 869.3606567382812 459.1460266113281 C 869.31396484375 459.0393371582031 869.2506103515625 458.94268798828125 869.170654296875 458.85601806640625 C 869.083984375 458.7760314941406 868.9839477539062 458.7126770019531 868.87060546875 458.666015625 C 868.7639770507812 458.6126708984375 868.6472778320312 458.5860290527344 868.5206298828125 458.5860290527344 L 868.0906372070312 458.5860290527344 C 867.9639892578125 458.5860290527344 867.843994140625 458.6126708984375 867.7306518554688 458.666015625 C 867.6173095703125 458.7126770019531 867.5206298828125 458.7760314941406 867.4406127929688 458.85601806640625 C 867.3606567382812 458.94268798828125 867.2939453125 459.0393371582031 867.2406616210938 459.1460266113281 C 867.1939697265625 459.25933837890625 867.170654296875 459.3793640136719 867.170654296875 459.5060119628906 L 867.170654296875 461.96600341796875 C 867.170654296875 462.0926818847656 867.1939697265625 462.2126770019531 867.2406616210938 462.3260192871094 C 867.2939453125 462.4393615722656 867.3606567382812 462.5360107421875 867.4406127929688 462.61602783203125 C 867.5206298828125 462.70269775390625 867.6173095703125 462.76934814453125 867.7306518554688 462.8160095214844 C 867.843994140625 462.8626708984375 867.9639892578125 462.8860168457031 868.0906372070312 462.8860168457031 L 868.5206298828125 462.8860168457031 C 868.6472778320312 462.8860168457031 868.7639770507812 462.8626708984375 868.87060546875 462.8160095214844 C 868.9839477539062 462.76934814453125 869.083984375 462.70269775390625 869.170654296875 462.61602783203125 C 869.2506103515625 462.5360107421875 869.31396484375 462.4393615722656 869.3606567382812 462.3260192871094 C 869.4139404296875 462.2126770019531 869.4406127929688 462.0926818847656 869.4406127929688 461.96600341796875 L 869.4406127929688 459.5060119628906 ZM 874.47802734375 463.3860168457031 L 872.3179931640625 460.73602294921875 L 874.47802734375 458.09600830078125 L 875.3079833984375 458.09600830078125 L 873.0880126953125 460.73602294921875 L 875.3079833984375 463.3860168457031 L 874.47802734375 463.3860168457031 M 871.5579833984375 463.3860168457031 L 871.5579833984375 455.97601318359375 L 872.18798828125 455.97601318359375 L 872.18798828125 463.3860168457031 L 871.5579833984375 463.3860168457031 ZM 876.3153686523438 456.8160095214844 L 876.3153686523438 455.97601318359375 L 877.0553588867188 455.97601318359375 L 877.0553588867188 456.8160095214844 L 876.3153686523438 456.8160095214844 M 876.3653564453125 463.3860168457031 L 876.3653564453125 458.09600830078125 L 876.995361328125 458.09600830078125 L 876.995361328125 463.3860168457031 L 876.3653564453125 463.3860168457031 ZM 882.0167236328125 461.9360046386719 C 882.0167236328125 462.14935302734375 881.9767456054688 462.349365234375 881.896728515625 462.5360107421875 C 881.8167114257812 462.7293395996094 881.7067260742188 462.8960266113281 881.5667114257812 463.0360107421875 C 881.4200439453125 463.176025390625 881.25341796875 463.2860107421875 881.0667114257812 463.36602783203125 C 880.8800659179688 463.4460144042969 880.6800537109375 463.48602294921875 880.4667358398438 463.48602294921875 L 880.0367431640625 463.48602294921875 C 879.8234252929688 463.48602294921875 879.6234130859375 463.4460144042969 879.436767578125 463.36602783203125 C 879.243408203125 463.2860107421875 879.0767211914062 463.176025390625 878.936767578125 463.0360107421875 C 878.7967529296875 462.8960266113281 878.686767578125 462.7293395996094 878.6067504882812 462.5360107421875 C 878.5267333984375 462.349365234375 878.4867553710938 462.14935302734375 878.4867553710938 461.9360046386719 L 878.4867553710938 459.5460205078125 C 878.4867553710938 459.3326721191406 878.5267333984375 459.1293640136719 878.6067504882812 458.9360046386719 C 878.686767578125 458.7493591308594 878.7967529296875 458.5860290527344 878.936767578125 458.4460144042969 C 879.0767211914062 458.3060302734375 879.243408203125 458.19268798828125 879.436767578125 458.10601806640625 C 879.6234130859375 458.0260314941406 879.8234252929688 457.98602294921875 880.0367431640625 457.98602294921875 L 880.4667358398438 457.98602294921875 C 880.6800537109375 457.98602294921875 880.8800659179688 458.0260314941406 881.0667114257812 458.10601806640625 C 881.25341796875 458.19268798828125 881.4200439453125 458.3060302734375 881.5667114257812 458.4460144042969 C 881.7067260742188 458.5860290527344 881.8167114257812 458.7493591308594 881.896728515625 458.9360046386719 C 881.9767456054688 459.1293640136719 882.0167236328125 459.3326721191406 882.0167236328125 459.5460205078125 L 882.0167236328125 460.7860107421875 L 879.1167602539062 460.7860107421875 L 879.1167602539062 461.96600341796875 C 879.1167602539062 462.0926818847656 879.1400756835938 462.2126770019531 879.186767578125 462.3260192871094 C 879.2400512695312 462.4393615722656 879.3067626953125 462.5360107421875 879.38671875 462.61602783203125 C 879.4667358398438 462.70269775390625 879.5634155273438 462.76934814453125 879.6767578125 462.8160095214844 C 879.7901000976562 462.8626708984375 879.9100952148438 462.8860168457031 880.0367431640625 462.8860168457031 L 880.4667358398438 462.8860168457031 C 880.5933837890625 462.8860168457031 880.7100830078125 462.8626708984375 880.8167114257812 462.8160095214844 C 880.9300537109375 462.76934814453125 881.0300903320312 462.70269775390625 881.1167602539062 462.61602783203125 C 881.1967163085938 462.5360107421875 881.2600708007812 462.4393615722656 881.3067626953125 462.3260192871094 C 881.3600463867188 462.2126770019531 881.38671875 462.0926818847656 881.38671875 461.96600341796875 L 881.38671875 461.61602783203125 L 882.0167236328125 461.72601318359375 L 882.0167236328125 461.9360046386719 L 882.0167236328125 461.9360046386719 M 881.38671875 459.5060119628906 C 881.38671875 459.3793640136719 881.3600463867188 459.25933837890625 881.3067626953125 459.1460266113281 C 881.2600708007812 459.0393371582031 881.1967163085938 458.94268798828125 881.1167602539062 458.85601806640625 C 881.0300903320312 458.7760314941406 880.9300537109375 458.7126770019531 880.8167114257812 458.666015625 C 880.7100830078125 458.6126708984375 880.5933837890625 458.5860290527344 880.4667358398438 458.5860290527344 L 880.0367431640625 458.5860290527344 C 879.9100952148438 458.5860290527344 879.7901000976562 458.6126708984375 879.6767578125 458.666015625 C 879.5634155273438 458.7126770019531 879.4667358398438 458.7760314941406 879.38671875 458.85601806640625 C 879.3067626953125 458.94268798828125 879.2400512695312 459.0393371582031 879.186767578125 459.1460266113281 C 879.1400756835938 459.25933837890625 879.1167602539062 459.3793640136719 879.1167602539062 459.5060119628906 L 879.1167602539062 460.2960205078125 L 881.38671875 460.2960205078125 L 881.38671875 459.5060119628906 Z" transform="matrix(21.904586791992188, 0, 0, 21.904586791992188, -18091.71875, -9918.7861328125)" style="fill: rgb(114, 165, 167); white-space: pre; color: rgb(102, 102, 102);"/><path d="M 949.846923828125 136.59829711914062 C 949.846923828125 137.1649627685547 949.740234375 137.69830322265625 949.5269165039062 138.19830322265625 C 949.3135986328125 138.69830322265625 949.020263671875 139.13829040527344 948.6469116210938 139.51829528808594 C 948.2669067382812 139.89163208007812 947.826904296875 140.18496704101562 947.326904296875 140.39830017089844 C 946.826904296875 140.61163330078125 946.2935791015625 140.71829223632812 945.7269287109375 140.71829223632812 L 944.5269165039062 140.71829223632812 C 943.9602661132812 140.71829223632812 943.423583984375 140.61163330078125 942.9169311523438 140.39830017089844 C 942.4169311523438 140.18496704101562 941.9769287109375 139.89163208007812 941.596923828125 139.51829528808594 C 941.2235717773438 139.13829040527344 940.9302368164062 138.69830322265625 940.7169189453125 138.19830322265625 C 940.5036010742188 137.69830322265625 940.3969116210938 137.1649627685547 940.3969116210938 136.59829711914062 L 940.3969116210938 127.57829284667969 C 940.3969116210938 127.00495910644531 940.5036010742188 126.46829223632812 940.7169189453125 125.96829223632812 C 940.9302368164062 125.46829223632812 941.2235717773438 125.03163146972656 941.596923828125 124.65829467773438 C 941.9769287109375 124.28496551513672 942.4169311523438 123.98829650878906 942.9169311523438 123.76829528808594 C 943.423583984375 123.55496215820312 943.9602661132812 123.44829559326172 944.5269165039062 123.44829559326172 L 945.7269287109375 123.44829559326172 C 946.2935791015625 123.44829559326172 946.826904296875 123.55496215820312 947.326904296875 123.76829528808594 C 947.826904296875 123.98829650878906 948.2669067382812 124.28496551513672 948.6469116210938 124.65829467773438 C 949.020263671875 125.03163146972656 949.3135986328125 125.46829223632812 949.5269165039062 125.96829223632812 C 949.740234375 126.46829223632812 949.846923828125 127.00495910644531 949.846923828125 127.57829284667969 L 949.846923828125 128.25830078125 L 948.3369140625 128.48829650878906 L 948.3369140625 127.57829284667969 C 948.3369140625 127.19829559326172 948.2669067382812 126.84829711914062 948.1268920898438 126.5282974243164 C 947.9869384765625 126.20162963867188 947.7969360351562 125.91829681396484 947.5569458007812 125.67829895019531 C 947.3102416992188 125.43163299560547 947.0269165039062 125.23829650878906 946.7069091796875 125.09829711914062 C 946.3802490234375 124.95829772949219 946.0302734375 124.88829803466797 945.6569213867188 124.88829803466797 L 944.596923828125 124.88829803466797 C 944.2235717773438 124.88829803466797 943.8735961914062 124.95829772949219 943.5469360351562 125.09829711914062 C 943.2269287109375 125.23829650878906 942.943603515625 125.43163299560547 942.6968994140625 125.67829895019531 C 942.4502563476562 125.91829681396484 942.2568969726562 126.20162963867188 942.116943359375 126.5282974243164 C 941.9769287109375 126.84829711914062 941.9069213867188 127.19829559326172 941.9069213867188 127.57829284667969 L 941.9069213867188 136.59829711914062 C 941.9069213867188 136.9716339111328 941.9769287109375 137.32162475585938 942.116943359375 137.64830017089844 C 942.2568969726562 137.96829223632812 942.4502563476562 138.2516326904297 942.6968994140625 138.498291015625 C 942.943603515625 138.74496459960938 943.2269287109375 138.93829345703125 943.5469360351562 139.0782928466797 C 943.8735961914062 139.21829223632812 944.2235717773438 139.28829956054688 944.596923828125 139.28829956054688 L 945.6569213867188 139.28829956054688 C 946.0302734375 139.28829956054688 946.3802490234375 139.21829223632812 946.7069091796875 139.0782928466797 C 947.0269165039062 138.93829345703125 947.3102416992188 138.74496459960938 947.5569458007812 138.498291015625 C 947.7969360351562 138.2516326904297 947.9869384765625 137.96829223632812 948.1268920898438 137.64830017089844 C 948.2669067382812 137.32162475585938 948.3369140625 136.9716339111328 948.3369140625 136.59829711914062 L 948.3369140625 135.68829345703125 L 949.846923828125 135.9282989501953 L 949.846923828125 136.59829711914062 L 949.846923828125 136.59829711914062 ZM 960.7509765625 137.19830322265625 C 960.7509765625 137.6782989501953 960.6575927734375 138.1349639892578 960.470947265625 138.56829833984375 C 960.2909545898438 138.99496459960938 960.0409545898438 139.36830139160156 959.720947265625 139.68829345703125 C 959.4009399414062 140.00830078125 959.0242919921875 140.26162719726562 958.5909423828125 140.44830322265625 C 958.164306640625 140.6282958984375 957.7076416015625 140.71829223632812 957.220947265625 140.71829223632812 L 956.2609252929688 140.71829223632812 C 955.7742919921875 140.71829223632812 955.317626953125 140.6282958984375 954.8909301757812 140.44830322265625 C 954.4576416015625 140.26162719726562 954.0809326171875 140.00830078125 953.7609252929688 139.68829345703125 C 953.4409790039062 139.36830139160156 953.1909790039062 138.99496459960938 953.0109252929688 138.56829833984375 C 952.8242797851562 138.1349639892578 952.73095703125 137.6782989501953 952.73095703125 137.19830322265625 L 952.73095703125 131.77828979492188 C 952.73095703125 131.2982940673828 952.8242797851562 130.8416290283203 953.0109252929688 130.40829467773438 C 953.1909790039062 129.98162841796875 953.4409790039062 129.60829162597656 953.7609252929688 129.28829956054688 C 954.0809326171875 128.96829223632812 954.4576416015625 128.7149658203125 954.8909301757812 128.52828979492188 C 955.317626953125 128.34829711914062 955.7742919921875 128.25830078125 956.2609252929688 128.25830078125 L 957.220947265625 128.25830078125 C 957.7076416015625 128.25830078125 958.164306640625 128.34829711914062 958.5909423828125 128.52828979492188 C 959.0242919921875 128.7149658203125 959.4009399414062 128.96829223632812 959.720947265625 129.28829956054688 C 960.0409545898438 129.60829162597656 960.2909545898438 129.98162841796875 960.470947265625 130.40829467773438 C 960.6575927734375 130.8416290283203 960.7509765625 131.2982940673828 960.7509765625 131.77828979492188 L 960.7509765625 137.19830322265625 L 960.7509765625 137.19830322265625 M 959.3109741210938 131.69830322265625 C 959.3109741210938 131.41163635253906 959.2542724609375 131.14163208007812 959.1409301757812 130.88829040527344 C 959.0343017578125 130.6349639892578 958.8876342773438 130.41163635253906 958.700927734375 130.21829223632812 C 958.5142822265625 130.03163146972656 958.2909545898438 129.8849639892578 958.0309448242188 129.77828979492188 C 957.7776489257812 129.6649627685547 957.5076293945312 129.60829162597656 957.220947265625 129.60829162597656 L 956.2609252929688 129.60829162597656 C 955.9743041992188 129.60829162597656 955.700927734375 129.6649627685547 955.4409790039062 129.77828979492188 C 955.1876220703125 129.8849639892578 954.9676513671875 130.03163146972656 954.7809448242188 130.21829223632812 C 954.5942993164062 130.41163635253906 954.4476318359375 130.6349639892578 954.3409423828125 130.88829040527344 C 954.2276000976562 131.14163208007812 954.1709594726562 131.41163635253906 954.1709594726562 131.69830322265625 L 954.1709594726562 137.27828979492188 C 954.1709594726562 137.56495666503906 954.2276000976562 137.8349609375 954.3409423828125 138.0883026123047 C 954.4476318359375 138.3416290283203 954.5942993164062 138.56495666503906 954.7809448242188 138.75830078125 C 954.9676513671875 138.94496154785156 955.1876220703125 139.0916290283203 955.4409790039062 139.19830322265625 C 955.700927734375 139.30496215820312 955.9743041992188 139.35829162597656 956.2609252929688 139.35829162597656 L 957.220947265625 139.35829162597656 C 957.5076293945312 139.35829162597656 957.7776489257812 139.30496215820312 958.0309448242188 139.19830322265625 C 958.2909545898438 139.0916290283203 958.5142822265625 138.94496154785156 958.700927734375 138.75830078125 C 958.8876342773438 138.56495666503906 959.0343017578125 138.3416290283203 959.1409301757812 138.0883026123047 C 959.2542724609375 137.8349609375 959.3109741210938 137.56495666503906 959.3109741210938 137.27828979492188 L 959.3109741210938 131.69830322265625 ZM 971.169189453125 140.48829650878906 L 970.3692016601562 139.26829528808594 C 970.0425415039062 139.7149658203125 969.632568359375 140.06829833984375 969.1392211914062 140.3282928466797 C 968.6458740234375 140.5883026123047 968.1058959960938 140.71829223632812 967.5192260742188 140.71829223632812 L 967.1591796875 140.71829223632812 C 966.6725463867188 140.71829223632812 966.2158813476562 140.6282958984375 965.7891845703125 140.44830322265625 C 965.3558959960938 140.26162719726562 964.9791870117188 140.00830078125 964.6591796875 139.68829345703125 C 964.3392333984375 139.36830139160156 964.0892333984375 138.99496459960938 963.9091796875 138.56829833984375 C 963.7225341796875 138.1349639892578 963.6292114257812 137.6782989501953 963.6292114257812 137.19830322265625 L 963.6292114257812 131.77828979492188 C 963.6292114257812 131.2982940673828 963.7225341796875 130.8416290283203 963.9091796875 130.40829467773438 C 964.0892333984375 129.98162841796875 964.3392333984375 129.60829162597656 964.6591796875 129.28829956054688 C 964.9791870117188 128.96829223632812 965.3558959960938 128.7149658203125 965.7891845703125 128.52828979492188 C 966.2158813476562 128.34829711914062 966.6725463867188 128.25830078125 967.1591796875 128.25830078125 L 967.5192260742188 128.25830078125 C 968.0592041015625 128.25830078125 968.5592041015625 128.36495971679688 969.0192260742188 128.5782928466797 C 969.4791870117188 128.7982940673828 969.8758544921875 129.10496520996094 970.209228515625 129.498291015625 L 970.209228515625 123.68829345703125 L 971.6492309570312 123.68829345703125 L 971.6492309570312 140.48829650878906 L 971.169189453125 140.48829650878906 M 970.209228515625 131.69830322265625 C 970.209228515625 131.41163635253906 970.1525268554688 131.14163208007812 970.0391845703125 130.88829040527344 C 969.9325561523438 130.6349639892578 969.785888671875 130.41163635253906 969.5991821289062 130.21829223632812 C 969.4125366210938 130.03163146972656 969.189208984375 129.8849639892578 968.92919921875 129.77828979492188 C 968.6759033203125 129.6649627685547 968.4058837890625 129.60829162597656 968.1192016601562 129.60829162597656 L 967.1591796875 129.60829162597656 C 966.87255859375 129.60829162597656 966.5991821289062 129.6649627685547 966.3392333984375 129.77828979492188 C 966.0858764648438 129.8849639892578 965.8659057617188 130.03163146972656 965.67919921875 130.21829223632812 C 965.4925537109375 130.41163635253906 965.3458862304688 130.6349639892578 965.2391967773438 130.88829040527344 C 965.1258544921875 131.14163208007812 965.0692138671875 131.41163635253906 965.0692138671875 131.69830322265625 L 965.0692138671875 137.27828979492188 C 965.0692138671875 137.56495666503906 965.1258544921875 137.8349609375 965.2391967773438 138.0883026123047 C 965.3458862304688 138.3416290283203 965.4925537109375 138.56495666503906 965.67919921875 138.75830078125 C 965.8659057617188 138.94496154785156 966.0858764648438 139.0916290283203 966.3392333984375 139.19830322265625 C 966.5991821289062 139.30496215820312 966.87255859375 139.35829162597656 967.1591796875 139.35829162597656 L 968.1192016601562 139.35829162597656 C 968.4058837890625 139.35829162597656 968.6759033203125 139.30496215820312 968.92919921875 139.19830322265625 C 969.189208984375 139.0916290283203 969.4125366210938 138.94496154785156 969.5991821289062 138.75830078125 C 969.785888671875 138.56495666503906 969.9325561523438 138.3416290283203 970.0391845703125 138.0883026123047 C 970.1525268554688 137.8349609375 970.209228515625 137.56495666503906 970.209228515625 137.27828979492188 L 970.209228515625 131.69830322265625 ZM 974.8875122070312 125.6082992553711 L 974.8875122070312 123.68829345703125 L 976.5675048828125 123.68829345703125 L 976.5675048828125 125.6082992553711 L 974.8875122070312 125.6082992553711 M 975.0075073242188 140.48829650878906 L 975.0075073242188 128.48829650878906 L 976.447509765625 128.48829650878906 L 976.447509765625 140.48829650878906 L 975.0075073242188 140.48829650878906 ZM 986.392578125 140.48829650878906 L 986.392578125 131.69830322265625 C 986.392578125 131.41163635253906 986.3358764648438 131.14163208007812 986.2225341796875 130.88829040527344 C 986.1159057617188 130.6349639892578 985.96923828125 130.41163635253906 985.7825317382812 130.21829223632812 C 985.5958862304688 130.03163146972656 985.37255859375 129.8849639892578 985.112548828125 129.77828979492188 C 984.8592529296875 129.6649627685547 984.5892333984375 129.60829162597656 984.3025512695312 129.60829162597656 L 983.342529296875 129.60829162597656 C 983.055908203125 129.60829162597656 982.7825317382812 129.6649627685547 982.5225830078125 129.77828979492188 C 982.2692260742188 129.8849639892578 982.0492553710938 130.03163146972656 981.862548828125 130.21829223632812 C 981.6759033203125 130.41163635253906 981.5292358398438 130.6349639892578 981.4225463867188 130.88829040527344 C 981.3092041015625 131.14163208007812 981.2525634765625 131.41163635253906 981.2525634765625 131.69830322265625 L 981.2525634765625 140.48829650878906 L 979.8125610351562 140.48829650878906 L 979.8125610351562 128.48829650878906 L 980.2925415039062 128.48829650878906 L 981.0825805664062 129.7082977294922 C 981.4092407226562 129.26162719726562 981.8192138671875 128.90829467773438 982.3125610351562 128.64830017089844 C 982.8125610351562 128.38829040527344 983.3558959960938 128.25830078125 983.9425659179688 128.25830078125 L 984.3025512695312 128.25830078125 C 984.7892456054688 128.25830078125 985.2459106445312 128.34829711914062 985.6725463867188 128.52828979492188 C 986.1058959960938 128.7149658203125 986.4825439453125 128.96829223632812 986.8025512695312 129.28829956054688 C 987.12255859375 129.60829162597656 987.37255859375 129.98162841796875 987.5525512695312 130.40829467773438 C 987.7391967773438 130.8416290283203 987.8325805664062 131.2982940673828 987.8325805664062 131.77828979492188 L 987.8325805664062 140.48829650878906 L 986.392578125 140.48829650878906 ZM 998.8408813476562 141.998291015625 C 998.8408813476562 142.48497009277344 998.7508544921875 142.93162536621094 998.5708618164062 143.3383026123047 C 998.3842163085938 143.74496459960938 998.130859375 144.0916290283203 997.8108520507812 144.3782958984375 C 997.4908447265625 144.6649627685547 997.1175537109375 144.88829040527344 996.6908569335938 145.0482940673828 C 996.257568359375 145.2082977294922 995.8009033203125 145.28829956054688 995.3208618164062 145.28829956054688 L 994.7208862304688 145.28829956054688 C 994.2341918945312 145.28829956054688 993.7775268554688 145.2082977294922 993.3508911132812 145.0482940673828 C 992.9175415039062 144.88829040527344 992.5408935546875 144.6649627685547 992.2208862304688 144.3782958984375 C 991.90087890625 144.0916290283203 991.65087890625 143.74496459960938 991.4708862304688 143.3383026123047 C 991.2841796875 142.93162536621094 991.1908569335938 142.48497009277344 991.1908569335938 141.998291015625 L 991.1908569335938 141.94830322265625 C 991.1908569335938 141.48162841796875 991.2775268554688 141.05496215820312 991.4508666992188 140.6682891845703 C 991.6242065429688 140.27496337890625 991.8575439453125 139.93496704101562 992.15087890625 139.64830017089844 C 991.7775268554688 139.421630859375 991.4808959960938 139.11495971679688 991.2608642578125 138.72830200195312 C 991.0341796875 138.3416290283203 990.9208984375 137.91163635253906 990.9208984375 137.43829345703125 C 990.9208984375 137.01829528808594 991.0108642578125 136.6282958984375 991.1908569335938 136.26829528808594 C 991.370849609375 135.90162658691406 991.6175537109375 135.60496520996094 991.9308471679688 135.3782958984375 C 991.5575561523438 135.0516357421875 991.2608642578125 134.65829467773438 991.0408935546875 134.19830322265625 C 990.8208618164062 133.73829650878906 990.7108764648438 133.23497009277344 990.7108764648438 132.68829345703125 L 990.7108764648438 131.77828979492188 C 990.7108764648438 131.2982940673828 990.80419921875 130.8416290283203 990.9908447265625 130.40829467773438 C 991.1708984375 129.98162841796875 991.4208984375 129.60829162597656 991.7408447265625 129.28829956054688 C 992.0608520507812 128.96829223632812 992.4375610351562 128.7149658203125 992.870849609375 128.52828979492188 C 993.2975463867188 128.34829711914062 993.7542114257812 128.25830078125 994.2408447265625 128.25830078125 L 994.8408813476562 128.25830078125 C 995.4275512695312 128.25830078125 995.967529296875 128.38829040527344 996.4608764648438 128.64830017089844 C 996.9542236328125 128.90829467773438 997.3675537109375 129.26162719726562 997.7008666992188 129.7082977294922 L 998.4808959960938 128.48829650878906 L 998.9608764648438 128.48829650878906 L 998.9608764648438 132.68829345703125 C 998.9608764648438 133.1682891845703 998.870849609375 133.62496948242188 998.6908569335938 134.0583038330078 C 998.5042114257812 134.48497009277344 998.2508544921875 134.85829162597656 997.9308471679688 135.1782989501953 C 997.6109008789062 135.498291015625 997.237548828125 135.7516326904297 996.8108520507812 135.93829345703125 C 996.3775634765625 136.11830139160156 995.9175415039062 136.2082977294922 995.4308471679688 136.2082977294922 L 993.3508911132812 136.2082977294922 C 993.1842041015625 136.2082977294922 993.0275268554688 136.2416229248047 992.880859375 136.3083038330078 C 992.7341918945312 136.37496948242188 992.6041870117188 136.4649658203125 992.4908447265625 136.5782928466797 C 992.3775634765625 136.68496704101562 992.2875366210938 136.81495666503906 992.2208862304688 136.96829223632812 C 992.160888671875 137.1216278076172 992.130859375 137.27828979492188 992.130859375 137.43829345703125 C 992.130859375 137.60496520996094 992.160888671875 137.76162719726562 992.2208862304688 137.90829467773438 C 992.2875366210938 138.05496215820312 992.3775634765625 138.18496704101562 992.4908447265625 138.2982940673828 C 992.6041870117188 138.41163635253906 992.7341918945312 138.5016326904297 992.880859375 138.56829833984375 C 993.0275268554688 138.6282958984375 993.1842041015625 138.65829467773438 993.3508911132812 138.65829467773438 L 995.3208618164062 138.65829467773438 C 995.8009033203125 138.65829467773438 996.257568359375 138.73829650878906 996.6908569335938 138.89830017089844 C 997.1175537109375 139.0583038330078 997.4908447265625 139.2849578857422 997.8108520507812 139.5782928466797 C 998.130859375 139.86495971679688 998.3842163085938 140.2116241455078 998.5708618164062 140.61830139160156 C 998.7508544921875 141.02496337890625 998.8408813476562 141.46829223632812 998.8408813476562 141.94830322265625 L 998.8408813476562 141.998291015625 L 998.8408813476562 141.998291015625 M 997.5308837890625 131.69830322265625 C 997.5308837890625 131.41163635253906 997.4775390625 131.14163208007812 997.370849609375 130.88829040527344 C 997.257568359375 130.6349639892578 997.1075439453125 130.41163635253906 996.9208984375 130.21829223632812 C 996.7275390625 130.03163146972656 996.5042114257812 129.8849639892578 996.2508544921875 129.77828979492188 C 995.99755859375 129.6649627685547 995.7241821289062 129.60829162597656 995.4308471679688 129.60829162597656 L 994.2408447265625 129.60829162597656 C 993.9542236328125 129.60829162597656 993.6808471679688 129.6649627685547 993.4208984375 129.77828979492188 C 993.1675415039062 129.8849639892578 992.9475708007812 130.03163146972656 992.7608642578125 130.21829223632812 C 992.57421875 130.41163635253906 992.4275512695312 130.6349639892578 992.3208618164062 130.88829040527344 C 992.20751953125 131.14163208007812 992.15087890625 131.41163635253906 992.15087890625 131.69830322265625 L 992.15087890625 132.76829528808594 C 992.15087890625 133.05496215820312 992.20751953125 133.32496643066406 992.3208618164062 133.5782928466797 C 992.4275512695312 133.83163452148438 992.57421875 134.0516357421875 992.7608642578125 134.23829650878906 C 992.9475708007812 134.43162536621094 993.1675415039062 134.58163452148438 993.4208984375 134.68829345703125 C 993.6808471679688 134.7949676513672 993.9542236328125 134.84829711914062 994.2408447265625 134.84829711914062 L 995.4308471679688 134.84829711914062 C 995.7241821289062 134.84829711914062 995.99755859375 134.7949676513672 996.2508544921875 134.68829345703125 C 996.5042114257812 134.58163452148438 996.7275390625 134.43162536621094 996.9208984375 134.23829650878906 C 997.1075439453125 134.0516357421875 997.257568359375 133.83163452148438 997.370849609375 133.5782928466797 C 997.4775390625 133.32496643066406 997.5308837890625 133.05496215820312 997.5308837890625 132.76829528808594 L 997.5308837890625 131.69830322265625 M 997.4708862304688 141.8782958984375 C 997.4708862304688 141.5916290283203 997.4175415039062 141.3349609375 997.3108520507812 141.10829162597656 C 997.2042236328125 140.87496948242188 997.05419921875 140.68162536621094 996.8609008789062 140.52828979492188 C 996.6741943359375 140.36830139160156 996.4542236328125 140.24496459960938 996.2008666992188 140.15829467773438 C 995.9475708007812 140.07162475585938 995.6775512695312 140.02828979492188 995.390869140625 140.02828979492188 L 994.65087890625 140.02828979492188 C 994.3641967773438 140.02828979492188 994.0908813476562 140.07162475585938 993.8308715820312 140.15829467773438 C 993.5775146484375 140.24496459960938 993.3575439453125 140.36830139160156 993.1708984375 140.52828979492188 C 992.9841918945312 140.68162536621094 992.8375244140625 140.87496948242188 992.7308959960938 141.10829162597656 C 992.6175537109375 141.3349609375 992.5608520507812 141.5916290283203 992.5608520507812 141.8782958984375 L 992.5608520507812 142.06829833984375 C 992.5608520507812 142.36163330078125 992.6175537109375 142.6216278076172 992.7308959960938 142.84829711914062 C 992.8375244140625 143.07496643066406 992.9841918945312 143.26829528808594 993.1708984375 143.4282989501953 C 993.3575439453125 143.5883026123047 993.5775146484375 143.7082977294922 993.8308715820312 143.78829956054688 C 994.0908813476562 143.87496948242188 994.3641967773438 143.9182891845703 994.65087890625 143.9182891845703 L 995.390869140625 143.9182891845703 C 995.6775512695312 143.9182891845703 995.9475708007812 143.87496948242188 996.2008666992188 143.78829956054688 C 996.4542236328125 143.7082977294922 996.6741943359375 143.5883026123047 996.8609008789062 143.4282989501953 C 997.05419921875 143.26829528808594 997.2042236328125 143.07496643066406 997.3108520507812 142.84829711914062 C 997.4175415039062 142.6216278076172 997.4708862304688 142.36163330078125 997.4708862304688 142.06829833984375 L 997.4708862304688 141.8782958984375 Z" transform="matrix(11.972071647644043, 0, 0, 11.972071647644043, -10589.880859375, -1162.774658203125)" style="fill: rgb(114, 165, 167); white-space: pre; color: rgb(51, 51, 51);"/><path d="M 1117.7432861328125 418.1708679199219 C 1117.7230224609375 413.6908874511719 1115.8662109375 411.4592590332031 1112.1729736328125 411.4759521484375 C 1111.859619140625 411.4773864746094 1111.54296875 411.47882080078125 1111.222900390625 411.4802551269531 C 1109.810302734375 411.6399841308594 1108.9857177734375 411.3670349121094 1108.749267578125 410.66143798828125 C 1108.5059814453125 409.95587158203125 1108.857177734375 409.4842529296875 1109.8028564453125 409.24664306640625 C 1110.74169921875 409.0024108886719 1111.764892578125 408.9577941894531 1112.8721923828125 409.11279296875 C 1116.961669921875 409.7209777832031 1119.7603759765625 411.635009765625 1121.268310546875 414.8548889160156 C 1122.3038330078125 416.81689453125 1122.825927734375 418.7412109375 1122.8343505859375 420.62786865234375 C 1122.864990234375 427.39447021484375 1120.4150390625 434.0522766113281 1115.484619140625 440.6012878417969 C 1110.5611572265625 447.2369384765625 1104.166259765625 450.5725402832031 1096.2996826171875 450.6081237792969 C 1093.3863525390625 450.62127685546875 1091.0225830078125 449.8052978515625 1089.20849609375 448.1601257324219 C 1087.3944091796875 446.5149841308594 1086.4810791015625 444.3157653808594 1086.4686279296875 441.5624694824219 C 1086.4537353515625 438.2558288574219 1088.3150634765625 432.6606750488281 1092.0528564453125 424.77703857421875 C 1085.6546630859375 436.9994201660156 1081.516357421875 444.02154541015625 1079.637939453125 445.8433837890625 C 1078.8544921875 446.5535888671875 1078.4600830078125 446.3186950683594 1078.4547119140625 445.1387023925781 C 1078.4537353515625 444.9053955078125 1078.532470703125 444.62835693359375 1078.6910400390625 444.3076477050781 C 1081.427978515625 440.681884765625 1086.8701171875 430.8238525390625 1095.0174560546875 414.7335510253906 C 1103.1649169921875 398.6498718261719 1108.880615234375 388.1239318847656 1112.1649169921875 383.15570068359375 C 1114.82080078125 379.29034423828125 1117.4053955078125 377.3519592285156 1119.918701171875 377.3406066894531 C 1119.918701171875 377.3406066894531 1119.958740234375 377.3404235839844 1120.0386962890625 377.3400573730469 L 1120.628662109375 377.33740234375 C 1120.708740234375 377.3370361328125 1121.399169921875 377.4505920410156 1122.7003173828125 377.67803955078125 C 1123.99462890625 377.905517578125 1124.9581298828125 377.941162109375 1125.5908203125 377.78497314453125 C 1123.0032958984375 380.550048828125 1118.938232421875 386.07513427734375 1113.3956298828125 394.3602600097656 C 1099.641845703125 414.9559631347656 1092.7879638671875 430.3271179199219 1092.833740234375 440.4736633300781 C 1092.8526611328125 444.6402893066406 1094.199951171875 446.9942321777344 1096.875732421875 447.5354919433594 C 1097.1094970703125 447.6144104003906 1097.3863525390625 447.6531677246094 1097.706298828125 447.6517333984375 C 1100.1396484375 447.6407165527344 1103.1763916015625 445.4436340332031 1106.816650390625 441.06048583984375 C 1110.456787109375 436.67730712890625 1113.4443359375 431.6871032714844 1115.779052734375 426.0898132324219 C 1117.09912109375 423.17047119140625 1117.75390625 420.53082275390625 1117.7432861328125 418.1708679199219 ZM 1135.108154296875 432.1885986328125 C 1133.9910888671875 434.8548889160156 1133.4219970703125 437.84130859375 1133.4010009765625 441.1479187011719 C 1133.386962890625 443.3478698730469 1133.86572265625 445.1009521484375 1134.83740234375 446.40716552734375 C 1135.8157958984375 447.706787109375 1137.2083740234375 448.3623352050781 1139.0150146484375 448.37384033203125 C 1146.1748046875 448.41949462890625 1152.7076416015625 441.7376708984375 1158.6131591796875 428.328369140625 C 1159.174560546875 427.0719299316406 1159.8480224609375 426.52288818359375 1160.6336669921875 426.68121337890625 C 1160.946533203125 426.7632141113281 1161.1019287109375 426.96087646484375 1161.0999755859375 427.2742004394531 C 1161.097900390625 427.5942077636719 1160.1981201171875 429.6551818847656 1158.4005126953125 433.4571228027344 C 1156.6094970703125 437.2591247558594 1154.7999267578125 440.3343200683594 1152.9715576171875 442.6827087402344 C 1148.929931640625 448.1637268066406 1143.9591064453125 450.8854064941406 1138.0592041015625 450.8478088378906 C 1134.91259765625 450.8277587890625 1132.2425537109375 449.7873840332031 1130.0489501953125 447.7266845703125 C 1127.8619384765625 445.6726989746094 1126.77978515625 442.875732421875 1126.8023681640625 439.3358154296875 C 1126.824951171875 435.7958984375 1127.695556640625 432.044677734375 1129.4141845703125 428.0822448730469 C 1131.1260986328125 424.1197204589844 1133.44970703125 420.4344787597656 1136.384765625 417.0264587402344 C 1139.313232421875 413.6250305175781 1142.67236328125 411.1497497558594 1146.4622802734375 409.60052490234375 C 1148.27392578125 408.8254089355469 1150.0064697265625 408.443115234375 1151.6597900390625 408.4536437988281 C 1153.31298828125 408.46417236328125 1154.8433837890625 408.9472961425781 1156.2506103515625 409.9029541015625 C 1157.58349609375 411.0114440917969 1158.2457275390625 412.2357177734375 1158.2371826171875 413.57568359375 C 1158.2071533203125 418.29559326171875 1155.344970703125 422.8007507324219 1149.65087890625 427.0912170410156 C 1147.915771484375 428.41351318359375 1145.4715576171875 429.5946350097656 1142.318115234375 430.6345520019531 C 1139.164794921875 431.6811218261719 1136.7613525390625 432.19915771484375 1135.108154296875 432.1885986328125 M 1155.048095703125 413.4353332519531 C 1155.05810546875 411.8620300292969 1154.43310546875 411.0713806152344 1153.173095703125 411.0633544921875 C 1150.97314453125 411.04931640625 1147.6126708984375 413.74127197265625 1143.0914306640625 419.1392517089844 C 1140.3970947265625 422.4288024902344 1138.0135498046875 426.1103515625 1135.94091796875 430.1838684082031 C 1137.2808837890625 430.1924133300781 1139.2337646484375 429.73486328125 1141.7998046875 428.8111877441406 C 1144.359130859375 427.8808288574219 1146.5870361328125 426.635009765625 1148.4837646484375 425.07373046875 C 1152.8338623046875 421.4013977050781 1155.02197265625 417.5219421386719 1155.048095703125 413.4353332519531 Z" transform="matrix(1.120615005493164, 0, 0, 1.120615005493164, 59.9191780090332, -273.98968505859375)" style="fill: rgb(114, 165, 167); white-space: pre; color: rgb(51, 51, 51); fill-opacity: 1; stroke: rgb(0, 0, 0); stroke-width: 0;"/><path d="M 253.7864532470703 394.6593322753906" style="fill: rgb(255, 255, 255); fill-opacity: 1; stroke: rgb(0, 0, 0); stroke-opacity: 1; stroke-width: 0; paint-order: stroke;"/></svg>